<?xml version="1.0" encoding="UTF-8"?>
<!DOCTYPE svg PUBLIC "-//W3C//DTD SVG 1.1//EN" "http://www.w3.org/Graphics/SVG/1.1/DTD/svg11.dtd">
<!-- Creator: CorelDRAW 2020 (64-Bit) -->
<svg xmlns="http://www.w3.org/2000/svg" xml:space="preserve" width="82.5499mm" height="56.8676mm" version="1.1" style="shape-rendering:geometricPrecision; text-rendering:geometricPrecision; image-rendering:optimizeQuality; fill-rule:evenodd; clip-rule:evenodd"
viewBox="0 0 8240.74 5676.95"
 xmlns:xlink="http://www.w3.org/1999/xlink"
 xmlns:xodm="http://www.corel.com/coreldraw/odm/2003">
 <defs>
  <style type="text/css">
   <![CDATA[
    .fil2 {fill:none;fill-rule:nonzero}
    .fil0 {fill:#124483;fill-rule:nonzero;fill-opacity:0.000000}
    .fil1 {fill:#154F8F;fill-rule:nonzero}
   ]]>
  </style>
   <clipPath id="id0" style="clip-rule:nonzero">
    <path d="M8240.74 0l-8240.74 0 0 5676.95 8240.74 0 0 -5676.95z"/>
   </clipPath>
   <clipPath id="id1" style="clip-rule:nonzero">
    <path d="M8240.74 0l-8240.74 0 0 5676.95 8240.74 0 0 -5676.95z"/>
   </clipPath>
 </defs>
 <g id="Layer_x0020_1">
  <metadata id="CorelCorpID_0Corel-Layer"/>
  <g style="clip-path:url(#id0)">
   <polygon class="fil0" points="-0,0 8240.74,0 8240.74,5676.95 -0,5676.95 "/>
  </g>
  <g style="clip-path:url(#id1)">
   <g id="_1065973104">
    <path id="1" class="fil1" d="M-3732.42 4450.53c-24.96,-0.55 -49.92,-1.11 -74.88,-1.11 17.75,10.01 36.61,6.69 54.92,8.35 6.1,0.56 14.97,-1.11 14.97,8.33 0,10.56 7.77,18.91 6.1,30.59 -23.3,-2.25 -46.04,-3.91 -68.22,-6.13 -3.32,-0.56 -8.33,-2.78 -8.87,3.32 -1.11,8.35 4.99,5.57 8.87,6.13 18.86,1.11 37.17,2.78 56.02,3.32 12.2,0.56 23.85,0.56 13.87,20.55 -2.22,4.46 1.11,10.56 2.22,16.13 2.78,19.45 16.06,35.56 18.28,53.33 3.88,33.92 24.96,50.58 46.59,62.81 58.8,34.44 116.48,73.9 183.57,86.66 2.78,7.24 11.09,2.81 14.97,8.9 -1.11,0.55 -2.22,0.55 -3.32,0.55 -4.44,0 -8.87,-0.55 -12.76,0.56 -20.52,5.57 -34.92,17.78 -44.35,40.01 -2.78,6.66 -11.65,11.68 -7.77,21.1 3.88,8.36 11.65,5.58 18.31,5.02 3.32,0.56 6.66,1.11 10.51,2.22 5.55,6.11 12.2,3.33 18.86,3.88 7.21,5.58 14.43,9.46 23.3,8.35 5.54,7.77 3.88,23.33 18.86,21.66 6.1,3.32 12.2,6.13 18.3,9.45 13.88,20.55 36.06,9.43 53.25,17.22 1.12,0 2.23,0.56 3.33,1.11 -5.55,11.68 -1.67,22.24 5.54,31.68 -16.63,6.68 -32.72,3.9 -48.25,5.01 -9.43,0.56 -17.2,2.78 -22.19,12.79 -22.18,12.2 -48.26,11.09 -75.41,24.43 14.4,5.02 23.27,5.58 32.7,5.58 10.53,9.42 17.19,18.33 -3.88,21.65 -3.33,0.56 -8.33,1.11 -9.43,5.55 -1.11,6.13 4.99,7.24 8.33,9.45 3.32,2.78 7.77,3.88 11.64,5.55 0,2.8 -7.21,6.13 -1.66,7.24 17.19,3.88 32.72,17.77 51.58,13.89 -1.11,17.78 -16.64,32.78 -6.66,53.36 2.23,4.44 -4.99,13.32 -13.87,14.45 -3.88,0.56 -8.32,2.23 -4.43,7.77 7.21,8.9 4.43,16.67 -0.56,24.46 -4.43,6.66 -1.66,11.12 3.88,12.23 14.97,3.33 11.09,19.45 16.08,28.9 -11.09,5.54 -9.98,26.64 -23.29,26.64 -12.21,0.56 -9.43,9.46 -12.21,16.14 -1.66,3.32 3.33,8.87 -2.22,11.09 -17.19,7.8 -4.43,13.34 1.11,19.47 6.11,7.22 14.43,8.33 22.74,6.1 11.1,3.33 22.19,6.69 33.28,9.46 2.78,6.65 14.43,-1.11 13.87,9.98 -0.55,7.24 -5.54,12.23 -12.76,13.89 -2.22,0.56 -4.99,1.67 -6.65,3.35 -7.77,7.77 -13.88,16.11 1.66,22.22 8.33,3.88 16.64,8.35 25.52,12.78 -6.66,13.9 -15.53,20 -28.29,19.45 -12.76,-0.56 -23.29,5.57 -32.72,13.89 -6.1,1.11 -12.76,1.67 -17.75,4.46 -6.66,3.88 -19.97,1.12 -17.75,16.11 1.67,12.79 7.77,21.1 20.52,21.66 18.86,21.68 43.27,32.77 67.67,43.89 12.76,10.01 26.62,17.78 41.6,21.69 5.54,1.11 12.2,2.22 13.31,9.42 2.23,11.68 11.65,12.79 18.31,18.36 15.53,13.9 46.01,4.43 49.33,37.77 0,1.66 2.78,3.32 4.44,3.32 26.62,-0.56 48.81,17.25 73.77,22.79 29.95,6.66 59.9,12.79 89.3,23.91 22.72,8.32 45.46,21.1 70.98,17.77 11.09,2.23 22.18,5.55 33.27,7.22 51.03,7.24 99.85,29.45 151.96,30 18.3,9.46 38.27,7.8 57.67,8.9 44.37,5.55 89.31,4.99 132.54,15.55 36.62,8.9 72.66,15 109.82,13.9 49.91,4.99 99.28,15.55 149.19,19.44 54.91,4.47 109.81,15 164.72,22.24 16.08,2.22 33.83,-1.11 48.81,3.88 39.93,13.9 80.97,18.92 122.57,17.78 8.32,8.35 18.3,7.24 28.28,8.89 46.03,5.55 93.17,6.11 138.65,19.45 18.86,3.9 37.7,3.9 56.56,8.35 13.87,3.32 28.84,7.77 43.81,2.22 0,0 0.56,0 0.56,0.56 2.22,1.11 4.99,1.66 6.66,3.88 9.42,16.13 22.18,18.35 37.16,11.67 4.43,-2.22 9.98,0 14.97,-1.11 2.77,-0.56 5.54,-1.11 8.32,-1.67 2.22,0 4.43,0.56 6.66,0.56 17.75,-1.67 35.49,2.78 53.24,5.54 11.65,8.36 26.06,1.7 37.71,8.36 9.98,5.54 16.63,14.45 29.95,15.55 17.19,1.11 34.94,0.55 52.13,4.99 8.87,2.25 12.76,-3.32 16.64,-9.43 27.17,-1.66 52.68,12.23 80.41,9.43 2.22,0 5.55,1.11 6.1,2.8 6.1,17.23 14.43,4.44 22.18,0.56 -1.11,15 -12.75,26.09 -10.53,41.1 2.78,20.57 -5.55,37.79 -12.76,56.12 -6.65,16.67 -8.32,35.03 -8.87,52.8 -3.32,1.11 -7.21,2.23 -10.53,3.33 -1.11,-0.56 -2.23,-0.56 -3.33,-0.56 -16.08,-11.12 -32.71,-11.12 -49.91,-4.43 -16.63,2.77 -27.17,-13.34 -41.59,-17.22 -54.91,-23.35 -112.59,-31.7 -170.81,-27.79 -9.98,-0.55 -19.97,-1.11 -29.4,-6.13 -26.61,-15 -54.91,-15 -83.75,-13.34 -6.1,-1.67 -11.64,-3.88 -17.74,-4.99 -43.81,-11.67 -88.74,-20 -133.66,-27.23 -7.22,-12.23 -14.97,-22.21 -29.95,-17.22 -18.31,-0.55 -36.05,-12.78 -54.36,-1.67 -2.77,1.67 -6.65,0.56 -8.32,-4.99 -4.44,-14.45 -14.43,-13.34 -24.96,-9.45 -4.99,1.67 -9.43,5.55 -14.42,1.11 -15.53,-13.89 -33.28,-7.79 -51.03,-8.35 -8.87,-1.11 -17.19,-2.78 -26.06,-2.78 -25.51,1.12 -46.58,-17.22 -71.54,-16.66l0 -0.56c-22.74,-4.43 -45.48,-8.89 -68.22,-13.34 -1.11,-0.55 -2.22,-0.55 -3.32,-0.55 -12.76,-6.66 -26.06,-3.33 -38.82,-2.78 -3.88,0 -9.43,1.11 -9.98,7.77 -0.56,7.24 5.55,6.13 9.42,7.24 5,1.66 11.65,-1.11 13.32,7.77 2.77,12.78 27.73,30 38.82,28.89 15.52,-1.11 32.71,-8.32 46.03,7.24 6.1,6.66 38.82,10.01 45.47,3.88 1.11,-0.56 2.23,-2.78 2.23,-2.78 -13.87,-25.57 8.87,-11.67 14.42,-16.11 3.88,1.11 7.77,2.78 11.65,3.88 26.61,11.12 50.46,30.01 82.08,20.57 11.64,-3.35 24.4,2.23 37.16,8.33 -8.87,5.57 -17.75,-0.56 -26.62,6.68 11.65,0 21.07,0.56 30.51,0.56 7.21,0 12.76,0.55 17.19,9.42 7.77,16.67 31.62,17.81 42.15,2.78 7.22,-10.54 18.31,-7.21 25.52,-3.88 8.32,3.88 -8.32,6.68 -1.11,16.11 21.63,-14.45 43.26,1.11 66,3.35 9.42,1.11 19.41,2.22 32.16,3.88 -11.64,8.87 -21.07,12.79 -33.83,17.22 13.32,9.45 23.3,20.55 36.05,14.45 11.65,-5.54 22.19,-4.43 33.28,-3.32 2.22,12.79 8.87,18.33 20.51,22.77 18.86,7.24 21.08,-14.46 32.72,-18.34 9.98,-4.99 19.97,-5.54 30.51,-4.43 12.75,1.11 26.06,6.66 38.26,-2.22 9.98,0.55 19.97,0.55 29.95,1.11 2.22,6.66 16.64,2.78 11.65,17.22 -2.78,7.77 -9.43,10.01 -14.97,13.9 16.63,3.88 31.61,8.32 47.14,11.12 7.21,1.11 18.86,4.99 22.18,-3.91 3.32,-9.43 -11.09,-6.1 -13.87,-13.9 -0.55,-1.11 0.56,-2.22 1.67,-7.77 13.87,18.89 29.95,-4.99 44.92,4.99 9.98,10.57 23.29,5.58 34.94,8.9 11.65,3.32 21.63,5.55 7.21,20 -2.22,2.22 -4.43,5.57 -2.78,8.9 2.78,5.54 6.11,0 9.43,0.55 15.52,0.56 25.51,-17.22 41.6,-14.45 17.74,18.89 36.05,31.12 61,14.45 3.87,-2.78 10.53,-2.22 13.31,2.78 1.11,2.22 1.11,7.8 -0.56,9.45 -14.42,15 0.56,10.54 6.1,11.65 10.54,7.24 7.22,21.13 5,28.34 -7.22,25.57 7.21,23.9 21.07,23.35 22.73,-1.67 44.91,1.67 66,10.01 6.65,2.78 13.31,2.78 20.51,3.32 33.28,3.88 67.1,-10.01 100.39,3.32 3.88,1.67 11.09,0 14.42,-2.77 11.09,-10.01 22.18,-7.24 33.83,-3.88 12.2,3.88 24.96,3.32 37.71,2.22 25.51,6.1 52.13,-1.11 76.54,6.1 26.61,7.24 50.46,0.56 75.98,-3.32 25.51,7.24 51.02,13.34 75.98,22.79 16.08,6.1 29.95,-5.57 45.47,-2.25 3.33,2.81 8.87,5.57 9.43,8.9 1.11,16.66 0.55,16.66 13.31,20.54 3.88,1.7 7.21,3.35 11.09,5.02 -2.78,13.34 -6.1,21.1 -19.41,9.43 -9.43,-8.33 -43.27,1.13 -56.01,15.02 28.28,-3.35 53.8,8.33 80.97,2.22 23.29,-5.01 46.03,3.88 69.32,7.22 6.1,1.11 18.31,5.01 17.75,-2.78 -1.11,-13.34 6.1,-8.35 9.42,-7.24 7.77,2.25 16.08,2.25 24.41,3.9 34.94,7.22 72.65,-0.55 103.71,26.68 1.66,1.11 4.99,0 7.21,-0.56 16.08,1.67 32.16,3.33 48.25,6.66 59.35,12.23 118.68,22.24 178.03,33.89 45.47,8.89 89.84,22.23 136.42,20.57 6.66,0 13.32,0.55 17.75,5.54 18.86,20.57 42.15,22.24 66.55,23.91 19.41,1.11 38.82,2.78 57.68,9.98 18.85,7.24 39.37,8.9 59.9,10.01 50.46,1.66 100.94,4.43 151.4,4.43 124.24,0 249.02,7.24 373.24,-6.66 52.13,-6.1 104.82,-6.1 156.95,-13.89 77.09,-11.68 153.08,-27.79 229.6,-41.68 8.33,-1.67 17.19,-4.44 24.41,-1.67 22.74,8.35 44.92,0 67.1,-2.78 28.28,5.55 56.01,-10.56 84.3,-4.43 12.2,2.77 23.84,1.66 34.93,-3.91 11.1,-5.55 21.63,-7.21 33.28,-6.1 43.81,3.88 87.07,-2.22 130.88,-4.99 21.62,-1.14 42.71,3.32 64.33,-1.14 32.17,-7.21 63.23,-17.22 97.06,-15.55 18.86,1.11 38.26,-6.66 57.12,-10.54 23.85,1.67 45.47,-8.9 68.21,-13.9 10.54,-2.22 22.18,3.88 31.06,-4.46 18.86,-17.22 39.38,-25.55 63.78,-31.12 43.26,-9.42 84.29,-22.76 127,0 11.1,6.13 22.74,0.56 27.18,-11.12 6.1,-15.55 17.19,-17.22 29.39,-17.77 22.74,-1.67 44.92,-4.99 67.1,-11.12 31.06,-2.78 62.67,-4.99 93.73,-7.77 18.86,3.32 36.05,-6.1 54.35,-7.24 3.88,0 6.66,-2.78 5,-8.87 -3.88,-13.9 5.54,-19.44 14.42,-24.46 10.54,-0.56 21.07,-1.11 31.62,-2.22 0,-1.67 0,-3.33 0,-5.55 -10.54,-0.56 -21.07,-1.67 -31.07,-2.22 -9.97,-7.8 -10.53,-8.35 -7.21,-11.68 9.43,-8.89 16.64,-20.57 31.62,-22.79 9.98,-1.67 21.63,-0.56 29.95,-11.12 13.31,0 26.06,-1.67 38.26,-7.77 9.98,-0.55 19.97,1.67 29.95,2.78 34.94,4.44 69.33,-1.67 103.71,-8.9l1.67 0 1.67 -0.55c32.71,2.22 65.44,7.24 98.16,11.12 45.48,5.57 90.95,-1.67 135.88,7.24 33.27,6.65 67.66,6.65 102.04,3.32 13.32,-1.11 26.06,-5.57 39.37,-3.88 65.45,6.66 130.34,16.67 195.76,18.33 78.75,2.23 157.52,-8.35 234.04,-31.11 14.43,4.99 30.51,6.1 42.16,15.55 10.54,8.32 19.42,8.32 29.95,7.21 8.87,-1.11 15.53,-5.54 6.11,-16.11 -3.88,-4.43 -9.43,-11.67 -6.11,-16.11 11.65,-16.66 -1.11,-20 -9.42,-26.11 8.32,-7.22 18.86,-3.88 27.73,-7.77 3.88,4.99 8.32,9.42 12.76,13.34 13.31,12.78 12.76,19.44 -6.1,18.89 -6.66,0 -15.53,0 -16.09,7.76 -1.11,11.12 9.43,8.9 16.09,11.12 18.86,5.58 37.71,8.35 57.13,7.24 69.3,18.34 137.53,0.56 205.75,-11.12 -36.06,-8.35 -71.56,-27.22 -107.6,-3.32 -9.43,-25.02 9.42,-47.23 2.22,-70.58 -11.65,0 -11.09,10.01 -13.32,15.56 -6.1,16.66 -20.51,23.9 -30.51,35 -17.75,20.02 -19.97,-12.79 -31.59,-16.67 -9.43,-11.12 6.63,-17.78 4.41,-26.67 -6.63,-28.9 -24.94,-11.65 -38.8,-10.54 -8.87,-15 -24.96,-16.11 -37.71,-23.35 8.32,1.11 17.19,1.67 25.52,2.78 3.88,0.55 8.87,-1.11 8.87,-5.55 0.55,-4.99 -4.44,-6.13 -7.77,-7.24 -8.33,-2.22 -16.64,-2.77 -24.96,-3.32 21.62,-18.89 47.7,-26.12 74.29,-22.21 39.94,5.54 79.32,15 120.36,12.2 4.44,23.91 26.07,30.59 38.27,46.7 -0.55,23.32 17.2,32.22 30.51,33.89 28.82,3.88 37.14,30.56 53.78,48.89 6.1,14.45 14.43,21.13 30.51,23.91 24.96,4.99 49.36,-1.12 73.21,2.22 47.71,6.13 95.93,0.55 143.63,7.24 11.65,1.66 23.3,0 21.63,-18.36 -1.11,-14.45 9.98,-11.65 16.64,-15 14.97,-7.21 7.77,7.24 10.54,12.23 3.32,7.24 8.32,10.56 15.52,9.45 5.55,-1.66 11.1,-2.78 17.2,-4.43 4.99,5.54 9.42,12.2 17.75,12.76 13.87,11.12 27.73,2.8 38.82,-4.44 7.19,-4.43 -6.1,-12.23 -7.77,-19.44 5.55,-15 26.6,-17.22 26.6,-35.02 0,-31.68 19.41,-34.45 39.38,-39.44 -0.56,15 14.42,8.87 18.86,17.22 6.66,20 -16.64,8.33 -17.2,20 -2.22,5.58 -7.21,14.46 -1.11,16.67 16.09,6.13 9.43,6.13 0,12.78 -6.65,5.02 -13.87,18.92 -9.42,28.9 4.43,11.12 18.3,8.9 24.96,3.88 17.75,-13.87 41.6,-18.33 52.14,-42.77 -2.78,-7.79 8.87,-14.45 1.67,-22.79 -17.75,-19.44 -4.99,-26.67 10.53,-32.78 1.67,-0.55 3.33,-1.11 4.99,-1.11 8.87,1.11 17.75,3.33 28.85,-5.57 -7.77,-4.99 -18.31,-2.22 -21.63,-11.67 22.18,-16.67 39.38,-5.55 54.91,12.78 13.85,19.47 36.03,-11.65 51,12.23 -24.4,3.33 -27.17,51.69 -61.53,32.78 -1.11,-0.56 -3.88,3.9 -6.11,5.57 -17.75,13.9 0,22.77 2.23,35 4.43,21.68 12.2,18.91 23.82,8.89 20.52,22.77 33.84,0 50.47,-10.56 -7.21,-10.01 -19.97,-16.67 -15.52,-32.78 1.66,-2.77 2.78,-4.99 4.43,-7.79 7.22,-12.23 37.71,-16.11 11.09,-39.99 3.33,-3.9 3.88,-13.9 8.33,-16.13 2.22,-0.56 4.99,0 8.87,4.46 14.97,14.45 26.62,22.76 31.62,-8.9 0.56,-2.78 9.43,-4.43 14.97,-6.1 5.55,4.43 11.65,4.99 18.31,4.99 1.11,2.78 2.78,4.99 3.88,7.79 0.55,1.12 1.66,1.67 2.22,2.78 -5.55,1.67 -10.54,3.33 -14.43,8.33 12.21,1.69 30.51,9.45 34.95,3.9 20.52,-26.67 38.82,-16.11 57.66,-4.46 3.32,12.79 7.21,18.36 13.87,16.67 4.43,8.89 10.53,17.24 16.64,25.01 -7.22,2.23 -14.43,4.46 -22.19,6.69 -8.87,-1.11 -18.31,-4.46 -26.59,1.11 0.55,20 18.83,5.54 25.49,16.66 -1.67,2.23 -2.78,4.99 -4.99,6.66 -5.55,5.02 -13.32,9.45 -6.66,19.47 3.88,5.55 7.21,13.9 14.97,11.09 9.43,-3.32 12.76,-14.45 10.54,-22.21 -3.32,-9.45 -1.11,-14.45 4.99,-20 3.32,0 6.66,0 9.98,0 -3.88,8.87 -11.65,21.1 1.67,24.44 13.87,3.32 11.65,-14.46 15.53,-23.33 7.76,-4.46 8.32,-11.67 5.54,-19.47 2.22,-9.98 4.44,-20.54 6.66,-30.56 4.99,-3.32 9.43,-8.87 16.08,-6.66 14.97,4.44 12.21,-27.78 29.4,-18.91 8.33,6.68 21.63,0.58 27.18,13.9 2.22,18.36 16.08,18.91 27.17,23.9 0,0.56 0,1.11 0.56,1.67 0.55,-0.56 1.11,0 2.22,-0.56 1.11,0.56 2.22,1.11 3.32,1.67 -1.11,8.35 2.78,17.22 -4.99,23.35 -1.11,-7.8 -4.99,-17.78 -11.09,-11.12 -8.32,8.9 -17.19,20 -17.19,35.58 0,13.87 6.1,15.55 16.08,12.76 9.98,-2.22 18.86,-6.66 30.51,-4.99 16.06,2.22 25.49,-7.77 9.42,-25.02 5.52,-2.22 10.51,-4.99 12.18,-12.2 14.43,11.65 29.4,-0.58 43.82,0.55 5.54,4.99 11.09,7.22 16.63,7.77 0,0 0.56,0.56 0.56,1.11 7.77,12.23 17.75,22.24 31.62,15.56 12.2,-5.55 8.33,-20 11.65,-31.12 0,2.22 0.55,3.88 2.22,7.24 4.99,8.32 6.66,21.66 18.86,18.89 11.65,-2.78 16.09,-17.22 14.43,-26.68 -1.67,-8.35 1.11,-15.55 0,-23.34 -8.87,-2.23 -16.08,1.13 -22.19,8.89 -2.22,2.78 -6.65,4.44 -9.98,6.66 1.67,-2.78 -4.43,-10.54 -9.98,-11.09 -5.54,-0.56 -13.87,0.55 -12.76,7.77 3.88,20.02 -1.66,22.23 -10.53,21.12 2.77,-2.22 5.54,-5.01 8.32,-8.35 -10.54,-11.67 -22.19,-11.12 -33.28,-8.87 0.56,-1.14 0.56,-1.14 1.11,-2.25 4.99,-17.77 13.87,-34.44 21.63,-51.66 11.65,-0.56 22.74,-2.78 34.39,-7.8 1.11,-0.55 3.33,1.67 4.99,2.81 -4.99,18.33 -12.2,37.76 18.31,31.12 3.88,-0.56 9.42,4.99 11.09,11.65l-0.56 -0.56 0 0.56c0,0 0,0 0.56,0 2.22,2.8 4.99,6.12 7.21,8.89 -2.77,2.78 -4.99,6.1 -3.32,13.9 1.67,7.79 1.11,17.22 9.98,19.44 8.87,2.25 20.52,-3.88 21.63,-9.42 2.78,-17.25 19.97,-21.69 22.19,-37.8 1.11,-1.11 2.22,-2.22 3.87,-3.32 3.33,3.32 8.3,4.99 12.18,3.32l0.56 0c9.42,13.9 21.63,3.88 32.72,3.88 -0.56,-2.22 -0.56,-4.43 0,-6.65 11.09,1.66 22.18,3.88 33.83,4.99 -1.11,5.57 -2.22,11.67 -3.88,18.91 0,0.56 -0.55,0.56 -0.55,0.56 -0.56,1.11 0,2.22 0,2.78 -1.11,6.1 -2.22,13.34 4.43,16.66 6.66,3.32 15.53,6.66 19.42,-3.32 11.09,-27.79 20.52,-9.46 30.51,0.55 1.11,33.89 19.97,15 32.72,13.9 6.66,6.1 12.76,13.34 22.74,11.09 3.33,16.69 11.65,16.69 21.63,7.8 5.55,-4.99 9.96,-12.23 18.28,-12.79 24.41,12.23 51.03,18.89 72.66,38.9 -3.88,4.44 -7.77,8.87 -12.21,12.79 -3.32,-2.8 -7.21,-5.02 -10.53,-7.79 -9.98,-18.89 -19.42,-23.33 -28.29,0.55 0,4.44 0,8.35 -0.56,12.79 -0.55,7.79 -4.43,17.22 3.88,21.68 19.42,9.98 47.71,-8.9 52.7,-33.91 17.75,-7.77 -5.55,-21.1 2.78,-31.68 16.08,8.9 31.06,11.12 41.6,-11.67 -1.67,6.68 -7.22,10.56 -3.88,15.55 14.97,22.24 32.72,5.02 48.81,2.78 18.31,-2.78 6.66,-13.31 2.23,-21.1 -3.33,-5.55 -0.56,-11.12 3.88,-12.79 22.18,-8.87 9.98,-13.34 -1.12,-18.88 -8.87,-4.44 -11.64,-11.12 -5.54,-21.69 2.22,-3.88 -3.33,-16.66 3.88,-13.89 8.32,2.8 16.08,2.25 23.29,0 -1.11,1.11 -2.22,1.66 -3.32,3.9 -8.32,17.78 15.5,7.77 17.72,18.89 0.56,2.78 2.78,6.1 4.99,7.21 3.88,1.14 7.77,2.81 11.65,4.47 -4.43,6.65 -1.11,12.23 10.54,25.57 12.76,11.09 -7.21,11.09 -5.55,18.88 -12.2,20.55 -21.07,40.02 8.87,51.11 13.87,11.12 24.41,14.45 23.3,-11.67 -0.56,-10.54 -1.67,-23.33 12.2,-8.33 13.32,17.22 24.97,19.45 33.84,-4.43 8.87,-1.67 15.52,-10.57 26.62,0.55 10.53,10.54 26.62,8.33 40.49,1.11 20.51,-26.11 41.02,-30 68.75,-13.34 4.43,2.78 13.31,6.66 15.52,4.44 23.3,-25.57 39.38,-2.78 58.25,8.35 6.65,3.88 17.75,4.99 24.4,1.67 15.53,-7.24 31.07,-5.02 46.6,-5.02 -2.78,19.47 -16.09,17.8 -28.85,18.36 -19.41,0.55 -27.17,17.22 -14.97,33.33 16.64,21.68 30.51,51.69 64.34,37.24 7.22,13.35 18.84,11.65 29.93,11.65 22.74,-0.55 44.93,-0.55 54.92,28.9 2.22,6.68 11.65,8.89 13.31,3.9 4.44,-11.67 8.33,-25.01 7.22,-37.24 -0.56,-7.77 -9.99,-12.79 -20.52,-10.57 -7.77,1.7 -16.64,-4.43 -24.41,-2.77 -19.97,4.43 -27.73,-7.22 -31.06,-26.12 0,-3.88 0,-7.77 0,-12.21 5.54,-3.35 10.53,-6.68 16.08,-9.45 -3.33,-6.68 -10.54,-6.68 -14.97,-10.56 -9.43,-7.77 -23.83,4.99 -29.93,-11.12 16.61,-9.43 36.58,-1.67 52.67,-13.34 22.18,5.57 42.71,20.57 66.55,15 16.64,15.02 2.78,33.35 4.44,50.02 0,2.22 0,5.55 0.55,5.55 28.85,6.68 56.58,21.12 86.53,18.91 12.2,-1.11 17.72,0.56 23.27,13.34 -14.4,-2.25 -27.15,-6.13 -39.91,-5.02 -7.77,0.56 -18.86,-6.65 -22.74,3.88 -4.43,10.57 8.87,13.9 12.2,21.69 0,6.1 -0.55,12.23 -0.55,18.33 -0.56,8.35 -7.77,18.91 3.32,24.46 12.21,6.1 14.97,-6.13 18.86,-15 1.12,-2.22 4.99,-2.22 7.22,-3.32 14.97,3.32 28.26,3.88 32.69,-17.25 17.2,14.45 37.17,-1.67 56.58,7.79 22.18,11.12 48.81,23.35 70.44,17.78 22.19,-5.55 33.28,1.11 47.15,13.9 0,2.78 0,5.01 0,7.79 -3.33,4.99 -7.77,9.43 0.55,13.34 10.54,4.44 21.05,5.55 32.14,4.99 21.08,-4.99 41.61,-3.87 61.01,7.8l0.56 0c16.64,7.21 33.83,17.22 50.47,0 8.32,1.67 1.11,-26.67 16.64,-11.12 3.32,13.34 9.98,28.34 21.07,9.98 11.65,-19.44 25.52,-16.11 41.05,-16.11 9.4,-0.55 19.95,5.58 27.7,-2.78 0,-14.45 -17.19,-8.87 -17.75,-23.32 13.32,-7.79 23.86,-21.12 42.16,-12.23 9.43,4.99 22.19,4.44 32.72,3.88 13.32,-0.55 5.55,31.12 24.97,18.89 11.64,-7.21 2.77,-24.44 11.09,-30.56 12.2,-8.87 63.79,10.56 71,26.67 7.77,16.66 18.3,24.46 34.92,25.57 14.97,0.56 31.06,3.32 37.16,21.66 6.66,20.57 15.53,11.12 24.97,5.01 36.61,-24.46 41.6,-23.35 64.34,11.65 4.99,-7.21 9.98,-13.9 14.97,-21.1 11.65,-16.66 61.54,-12.23 64.32,7.21 4.43,28.9 20.52,33.36 41.04,32.81 2.78,-1.12 5.55,-1.67 7.77,-2.23 29.96,-7.24 35.5,-14.45 21.63,-27.78 -19.42,-18.91 22.74,-25.02 4.99,-42.24 -6.1,-6.13 -12.76,-8.35 -19.97,-7.79 -11.09,1.11 -21.63,5.01 -32.72,6.13 -2.78,0.55 -4.99,1.66 -8.33,2.22 0,-0.56 0,-1.11 0,-1.67 2.78,-0.55 5.55,-1.11 7.77,-1.67 17.2,-2.8 34.95,-4.46 23.3,-32.8 -0.56,-2.22 3.32,-3.88 6.1,-5.54 4.44,-1.67 9.43,-3.33 13.87,-4.44 7.77,1.67 14.97,4.99 22.19,6.1 1.11,1.12 2.22,2.23 2.77,3.88 26.62,3.33 53.25,12.23 75.99,-13.34 5.55,-6.1 14.43,-6.1 21.63,-3.32 28.82,12.23 58.22,19.44 89.83,17.77 11.65,-0.55 20.52,6.69 11.09,22.24 -1.11,2.78 -1.67,6.1 -2.22,8.9 -6.66,6.66 -13.87,12.76 -21.07,17.78 -3.33,0 -6.66,0 -9.99,0 -11.09,1.66 -9.98,-8.36 -12.76,-15.56 -15.52,-40.01 -59.32,-50.58 -85.39,-19.47 -7.21,8.35 -12.75,10.56 -21.62,7.24 -10.54,-3.88 -21.63,-5.57 -22.19,12.23 -0.56,14.45 -1.11,31.12 19.97,27.79 7.22,-13.35 12.76,-23.35 27.73,-6.69 11.1,12.23 28.29,17.22 43.82,17.22 15.5,0 25.49,10.57 45.45,16.11 -10.53,3.35 -16.08,6.69 -17.19,5.02 -13.32,-14.45 -32.14,-5.02 -47.12,-13.34 -7.77,-4.44 -14.97,-1.67 -16.64,8.87 -1.67,13.89 21.07,40.01 32.16,33.35 16.62,-9.45 29.93,-1.11 44.35,2.78 21.07,5.55 39.93,5.55 48.81,-23.9 18.86,23.35 38.27,20.02 60.47,13.34 8.32,-2.22 -0.56,-23.88 13.87,-12.79 2.78,12.23 14.42,18.92 40.49,23.91 14.4,-2.22 28.81,-12.23 42.68,4.43 7.22,8.35 19.98,1.67 18.87,-7.21 -3.33,-26.12 12.75,-21.68 25.51,-23.9 5.55,7.23 13.87,6.12 21.08,6.12 31.06,0.56 62.12,0.56 93.18,0.56 9.43,0 18.86,-1.69 24.38,9.98 -6.07,6.68 -14.4,2.78 -20.49,5.02 -8.87,3.88 -26.62,-3.91 -25.52,14.45 1.11,14.45 16.09,12.2 25.52,9.98 47.68,-9.42 92.05,36.69 140.86,10.01 0.56,-0.56 1.67,0.55 2.78,1.11 14.43,13.9 31.62,8.9 47.71,10.01 29.95,8.32 59.88,-3.35 89.82,1.67 52.14,6.1 104.83,8.87 156.39,19.99 13.87,2.78 28.29,1.67 43.27,-0.55 14.97,-2.22 31.06,-12.79 47.15,-5.55 29.95,13.34 63.23,-0.55 93.18,13.34 6.66,2.78 19.98,-3.35 11.65,-11.12 -32.17,-31.67 -13.87,-51.13 9.98,-71.68 19.95,7.24 40.47,8.35 60.98,5.54 17.75,10.01 37.17,5.58 56.02,7.24 -2.22,8.9 -16.08,14.46 -7.21,26.12 8.32,10.54 18.31,4.99 27.73,0.56 5.55,-2.78 12.2,-4.47 18.31,-6.69 1.66,2.22 3.32,4.46 4.99,6.69 4.99,10.53 12.76,18.88 21.07,25.57 13.32,12.76 12.76,19.44 -6.1,18.88 -6.66,0 -15.53,0 -16.08,7.77 -1.12,11.12 9.42,8.9 16.08,11.12 18.86,5.55 37.71,8.35 57.1,7.24 69.34,18.33 137.56,0.56 205.75,-11.12 -36.03,-8.35 -71.53,-27.23 -107.57,-3.32 -9.43,-25.02 9.42,-47.25 2.22,-70.58 -11.65,0 -11.09,9.98 -13.31,15.56 -6.11,16.66 -20.52,23.88 -30.51,34.99 -17.75,20.03 -19.98,-12.78 -31.62,-16.66 -9.43,-11.12 6.65,-17.78 4.43,-26.67 -6.66,-28.9 -24.96,-11.68 -38.82,-10.54 -9.4,-16.14 -27.15,-16.14 -40.47,-24.46 -1.66,-0.56 -3.32,-1.11 -4.99,-1.67 -0.55,0 -1.11,-2.22 -0.55,-2.22 23.29,-26.67 53.22,-35.02 84.27,-30.59 39.94,5.57 79.32,15.03 120.37,12.23 4.43,23.91 26.06,30.56 38.26,46.7 -0.55,23.32 17.17,32.22 30.49,34.44 28.83,3.88 37.15,30.56 53.79,48.9 6.1,14.45 14.43,21.12 30.51,23.9 24.96,4.99 49.36,-1.11 73.21,2.22 47.68,6.1 95.93,0.56 143.63,7.22 11.65,1.69 23.3,0.02 21.63,-18.89 -1.11,-14.45 9.98,-11.68 16.64,-15 14.97,-7.21 7.77,7.24 10.54,12.23 3.32,7.24 8.32,10.56 15.53,9.45 5.54,-1.67 11.09,-2.8 17.19,-4.46 4.99,5.57 9.43,12.23 17.75,12.79 13.85,11.12 27.71,2.77 38.8,-4.44 7.21,-4.43 -6.1,-12.23 -7.77,-19.44 5.55,-15 26.62,-17.25 26.62,-35.03 0,-31.67 19.42,-34.44 39.38,-39.45 -0.56,15.58 14.43,8.89 18.86,17.24 6.66,20 -16.64,8.33 -17.19,20 -2.23,5.55 -7.22,14.45 -1.12,16.67 16.09,6.13 9.43,6.13 0,12.78 -6.65,4.99 -13.87,18.89 -9.42,28.9 4.43,11.12 18.3,8.89 24.96,3.88 17.75,-13.9 41.6,-18.33 52.14,-42.8 -2.78,-7.76 8.87,-14.45 1.67,-22.76 -17.75,-19.45 -4.99,-26.68 10.53,-32.78 1.67,-0.55 3.33,-1.13 5,-1.13 8.87,1.13 17.75,3.35 28.81,-5.55 -7.74,-4.99 -18.28,-2.22 -21.6,-11.68 22.16,-16.66 39.35,-5.54 54.89,12.79 13.87,19.47 36.05,-11.67 51.03,12.23 -24.41,3.32 -27.18,51.69 -61.57,32.78 -1.11,-0.56 -3.88,3.9 -6.1,5.57 -17.72,13.9 0,22.77 2.22,35 4.44,21.68 12.21,18.88 23.85,8.89 20.52,22.77 33.84,0 50.48,-10.56 -7.22,-10.01 -19.98,-16.67 -15.53,-32.78 1.67,-2.8 2.78,-5.01 4.43,-7.79 7.22,-12.23 37.72,-16.11 11.1,-40.02 3.32,-3.88 3.88,-13.89 8.32,-16.11 2.22,-0.55 4.99,0 8.87,4.47 14.97,14.45 26.62,22.76 31.62,-8.9 0.56,-2.78 9.43,-4.44 14.97,-6.1 11.65,9.98 26.62,0.55 42.16,8.32 -12.2,8.35 -24.96,5.57 -32.17,15.56 12.21,1.66 30.51,9.45 34.95,3.88 23.82,-30.57 44.34,-12.21 65.98,1.13 3.88,14.46 12.76,25.55 22.19,36.67 -7.22,2.22 -14.43,4.43 -22.19,6.68 -8.87,-1.14 -18.3,-4.46 -26.62,1.11 0.56,20 18.86,5.55 25.52,16.67 -1.67,2.22 -2.78,4.99 -4.99,6.66 -5.55,5.01 -13.32,9.45 -6.1,19.46 3.88,5.55 7.21,13.9 14.97,11.1 9.43,-3.33 12.76,-14.46 10.54,-22.21 -3.33,-9.46 -1.11,-14.46 4.99,-20.03 3.32,0 6.65,0 9.98,0 -3.88,8.9 -11.65,21.13 1.67,24.46 13.87,3.32 11.64,-14.45 15.52,-23.32 7.77,-4.46 8.33,-11.68 5.55,-19.47 2.22,-10.01 4.43,-20.55 6.66,-30.56 4.99,-3.33 9.42,-8.9 16.08,-6.66 14.97,4.43 12.2,-27.79 29.4,-18.92 8.32,6.69 21.63,0 27.17,13.9 2.23,21.68 21.63,17.8 32.7,26.67 -1.11,8.36 2.78,17.23 -4.97,23.35 -1.11,-7.79 -4.99,-17.8 -11.09,-11.12 -8.32,8.9 -17.19,20 -17.19,35.56 0,13.89 6.1,15.55 16.08,12.78 9.98,-2.22 18.84,-6.65 30.48,-4.99 16.09,2.23 25.52,-7.79 9.43,-25.01 5.55,-2.23 10.54,-4.99 12.2,-12.23 14.43,11.67 29.4,-0.56 43.82,0.55 14.42,13.34 27.17,10.57 39.93,-4.99 -12.76,-13.9 -26.06,-11.12 -39.93,-7.77 -18.31,-0.58 -36.06,-1.69 -54.36,-2.25 -2.78,-1.66 -4.99,-3.32 -7.77,-4.99 -2.78,-16.66 -18.31,-20.54 -27.15,-31.11 -1.67,-21.69 16.61,-15 23.27,-16.11 42.16,-8.9 85.97,10.56 128.68,-8.36 1.11,-0.55 3.33,1.67 4.99,2.78 -4.99,18.36 -12.2,37.79 18.31,31.15 3.88,-0.56 9.43,4.99 11.09,11.65l-0.55 -0.56 0 0.56c0,0 0,0 0.55,0 6.66,8.89 14.97,22.79 24.97,8.89 7.18,-9.45 7.18,-25.01 -6.11,-34.44 -5.54,-3.91 -15.52,-5.02 -11.64,-16.69 3.87,-2.22 3.32,-7.77 4.99,-9.43 6.65,-6.13 -13.87,-20.57 6.1,-22.23 11.62,-0.56 18.28,2.77 16.61,16.66 -1.11,12.23 6.66,8.35 12.2,10.56 25.52,10.01 47.71,-7.77 72.11,-10 17.75,-1.67 41.05,7.79 56.02,-14.46 11.65,1.14 18.86,7.8 19.98,21.13 0.55,5.55 2.22,10.56 7.76,10.56 5.55,-0.55 7.22,-5.01 7.22,-11.12 0.55,-28.89 16.64,-25.57 32.69,-17.77 11.1,5.54 20.52,5.54 31.62,-1.11 10.54,-6.69 21.08,-16.14 34.95,-5.02 4.43,3.88 10.53,-1.11 11.65,-8.87 0.55,-6.13 -2.23,-9.45 -7.77,-10.56 -31.62,-5.58 -63.79,-11.68 -95.38,-15 -7.77,-0.56 -27.74,3.32 -24.41,11.67 7.77,20 -5.55,15.56 -12.76,19.45 -1.11,-21.66 -22.74,-31.12 -29.4,-24.46 -16.08,17.8 -24.41,14.99 -44.37,6.12 -25.52,-11.12 -56.57,-7.79 -87.06,-10.56 9.4,-16.11 21.05,-33.33 -6.1,-42.79 -12.2,-4.44 -8.32,-14.45 -3.32,-22.77 4.99,-8.9 11.09,-7.24 18.83,-2.25 7.22,4.46 6.11,18.36 17.2,17.8 2.78,3.33 6.66,6.66 8.87,10.54 3.88,6.13 7.21,12.79 14.97,10.01 4.99,-1.67 6.1,-7.8 4.43,-12.79 -2.77,-11.12 -9.42,-10.56 -17.75,-7.77 -1.11,0.56 -3.32,-3.35 -4.99,-5.01 2.23,-20.55 29.96,-11.12 31.07,-32.22 1.11,-24.46 19.97,-14.45 21.63,-8.9 12.2,30.56 29.95,18.36 48.26,11.68 11.09,-3.88 27.73,1.11 23.85,13.89 -3.32,10.57 -5.55,34.47 -27.73,30.57 -6.66,-1.12 -16.64,1.11 -13.87,13.34 2.22,11.12 14.42,14.45 19.97,11.12 24.96,-14.46 52.14,-2.78 77.1,-11.12 9.96,-3.33 27.15,-1.67 25.49,-16.11 -1.66,-16.67 -17.16,-10.01 -27.7,-7.77 -7.21,1.67 -13.87,5.55 -21.07,5.55 -9.99,0 -23.3,5.54 -28.29,-11.12 29.95,-15.56 61.56,-4.44 92.6,-8.33 22.74,-2.8 41.6,1.67 32.17,-38.35 7.21,16.67 16.64,18.89 25.52,12.23 9.42,-7.23 -2.23,-13.89 -2.78,-21.68 -1.11,-9.98 -7.77,-28.34 -2.78,-27.78 22.19,3.35 36.61,-26.65 59.35,-16.11 4.44,2.22 13.32,-1.11 12.76,7.24 -0.55,3.88 -7.77,7.77 -11.65,11.67 -12.76,6.66 -32.16,9.43 -18.3,34.44 4.99,8.9 49.91,20.55 57.68,14.46 5.55,-4.44 4.99,-10.01 4.44,-16.67 -1.11,-7.79 -1.67,-16.11 -2.78,-24.46 19.42,-2.78 38.8,-4.43 57.66,-8.32 11.65,-2.25 26.62,12.2 33.28,-3.91 5.54,-13.9 -18.86,-9.42 -18.86,-24.43 5.54,-6.13 13.31,-7.24 18.3,-5.02 17.75,8.9 34.39,3.91 52.7,0.56 24.4,-3.88 51.02,-12.23 76.54,10.56 8.87,8.35 25.49,23.9 40.47,20.54 27.17,-6.1 59.35,8.35 81.53,-21.65 4.99,-6.66 12.21,1.11 18.31,0.55 25.52,-0.55 49.91,-7.24 66.55,-32.22 -4.43,-8.89 1.11,-26.67 -14.97,-24.46 -23.85,3.33 -47.7,-6.65 -71.55,6.11 -13.32,7.24 -29.4,8.35 -47.15,7.24 9.98,-6.11 23.85,-7.8 21.63,-20 -1.67,-12.23 -14.43,-10.01 -23.86,-11.12 -30.5,-4.99 -60.98,8.32 -91.49,-2.22 -7.21,-2.81 -11.64,5.54 -12.76,13.34 -1.66,17.22 -12.2,17.22 -23.85,18.33 -25.52,2.22 -48.81,-12.23 -74.32,-11.12 -8.33,0.56 -9.43,-6.66 -5.55,-15.55 8.33,-20.55 26.62,-27.23 50.47,-18.34 -4.43,5.55 -11.09,9.98 -11.09,18.89 0,6.1 0,12.79 6.66,15.56 5.55,2.22 13.31,3.87 13.87,-3.33 0.56,-12.78 11.09,-21.68 14.97,-32.77 2.78,-2.23 4.99,-5.02 7.77,-7.24 63.23,-4.99 126.44,-2.78 189.67,-3.33 11.65,0 16.64,7.22 17.19,19.45 0.56,8.89 3.88,16.11 13.32,17.22 7.21,0.58 12.76,-3.33 16.64,-9.98 0,0 0,-0.56 0.55,-0.56 0,18.33 7.77,20 31.07,19.44 9.98,-4.99 20.51,-12.23 22.74,8.35 2.19,9.99 -29.96,18.34 -1.67,30.57 0.56,8.87 0.56,17.77 -4.99,24.99 -14.43,6.68 -18.86,23.9 -9.43,31.7 18.28,15 38.8,4.99 58.22,-7.8 -20.52,1.11 -26.62,-10.56 -26.62,-30.01 2.78,-26.67 22.74,-14.45 34.94,-19.44 13.32,3.88 20.52,-13.34 32.72,-12.23 20.52,-9.45 17.75,7.77 17.2,20 -0.56,23.35 6.66,31.67 26.06,18.91 4.44,15 4.44,37.77 26.07,11.1 7.21,-8.87 19.41,-13.9 24.96,-26.09 5.55,-11.12 16.08,-17.81 26.06,-13.35 27.71,11.65 47.13,5.55 59.33,-26.11 21.63,-10.01 49.92,2.78 66.01,-25.57 -3.32,-6.11 -13.32,-1.67 -14.97,-10.57 5.54,-10.53 19.97,-17.22 8.87,-34.44 -11.09,13.34 -26.07,15 -41.6,15.55 -11.65,-11.67 -23.3,-21.1 -38.83,-8.35 0,2.25 -0.55,4.47 -0.55,6.13 -29.4,5.55 -19.42,-15.55 -17.2,-31.67 -0.55,-15.56 7.77,-13.34 18.31,-15 17.75,-3.35 27.73,19.44 45.48,12.79 39.93,-13.9 82.09,-12.23 122.03,-28.9 14.4,-5.57 31.03,8.87 46.01,-2.25 10.53,3.35 16.08,-8.32 25.52,-9.42 18.86,-2.23 18.3,-3.33 19.41,-21.13 -22.74,-10.54 -43.27,10.01 -65.45,8.35 -3.88,-2.22 -7.77,-3.88 -12.73,-3.32 -7.77,7.21 -14.98,7.77 -22.19,-1.11 -11.09,-20.03 -18.86,-38.35 9.98,-47.81 0.56,0 0.56,-1.67 1.11,-2.78 23.83,-28.34 55.99,4.99 80.96,-13.9 0.55,-0.56 2.78,2.22 4.43,2.78 5.55,1.67 10.54,-2.22 10.54,-6.66 0,-28.34 18.86,-22.24 31.06,-18.33 15.53,4.99 27.74,-21.68 43.27,-4.46 11.1,31.12 47.71,1.11 60.44,30.56 1.11,2.8 7.77,-2.78 8.87,-8.32 4.44,-26.12 16.08,-13.9 26.62,-6.13 -5.55,12.23 -1.11,13.89 9.43,12.23 23.85,-3.33 26.62,-34.44 46.03,-43.35 10.54,3.91 23.3,-1.67 32.72,7.24 7.22,6.66 11.1,3.32 12.76,-5.57 14.43,-15.56 38.27,-6.11 51.03,-24.99 9.43,0.55 18.84,1.66 28.26,2.22 -4.43,27.78 -25.49,21.65 -39.35,29.45 -9.43,5.55 1.67,34.44 -24.96,21.66 11.09,9.45 22.74,11.11 29.39,21.68 -1.66,8.87 -5.54,11.67 -12.76,6.1 -14.42,-3.88 -31.62,0 -43.81,-23.32 -1.67,15 0,23.88 -6.1,29.45 -9.98,16.66 -3.88,24.43 12.2,23.88 4.99,0 10.54,-7.77 15.53,-3.88 26.06,21.68 48.81,-4.99 73.19,-6.1 9.98,-6.69 19.41,1.11 29.39,1.66 12.21,0.56 22.19,-1.11 23.3,-17.77 11.09,-7.8 -7.77,-21.69 3.32,-26.68 14.98,-6.13 17.2,-20.57 22.74,-33.35 11.1,-25.55 48.26,-49.44 63.24,-35.56 13.31,12.79 17.19,3.88 24.96,-2.22 6.1,-5.02 11.65,-12.23 18.3,-13.9 11.1,-3.32 22.72,-3.32 34.37,-5.01 -1.11,11.67 -1.67,23.9 -4.44,35.02 -1.67,5.55 -12.2,8.32 -7.77,17.22 2.78,5.55 9.98,4.44 15.53,3.32 8.32,-1.66 13.32,-5.54 12.76,-16.66 -0.56,-12.79 0.56,-25.02 17.19,-13.9 4.99,3.33 6.66,-0.55 4.99,-5.54 -4.43,-15 3.88,-13.9 11.65,-10.57 22.19,8.35 43.27,1.67 61.01,-9.45 12.76,-8.32 29.4,12.23 37.17,-9.98 17.75,-7.8 36.05,-13.9 55.99,-12.79 34.94,-7.79 69.89,-16.11 104.83,-22.23 17.75,-2.78 26.62,-10.54 26.07,-30.57 39.93,-9.98 79.29,-19.44 119.22,-29.45 3.88,0.56 8.87,-0.55 10.54,1.67 17.75,18.91 29.95,14.45 43.81,-7.21 6.66,-10.57 19.42,-18.89 33.28,-18.34 7.77,0.56 17.19,2.23 18.86,-11.67 4.99,-2.22 10.54,-5.02 15.53,-7.24 15.53,2.8 26.62,-4.43 35.47,-18.33 -17.72,12.23 -39.91,-1.67 -57.1,12.23 -18.31,2.22 -36.61,4.43 -54.92,6.66 -14.42,-7.77 -22.74,11.11 -35.5,11.11 0,-2.22 0,-4.43 0,-6.1 -2.78,-22.79 17.2,-46.7 42.16,-49.46 34.94,-3.88 34.94,-3.88 55.46,-30.57 -11.09,2.23 -23.29,3.33 -34.39,7.24 -26.06,9.43 -54.91,9.98 -79.31,27.23 -11.65,1.11 -23.3,1.67 -33.83,7.22 -25.5,3.87 -51.01,8.35 -76.52,11.67 -22.19,2.78 -28.29,-8.9 -18.31,-31.12 13.87,-3.9 27.73,-9.45 39.94,-14.45 16.63,-7.24 37.68,2.22 51,-15.55 7.21,-2.81 13.87,-7.24 21.07,-7.24 52.69,0.55 100.4,-27.79 151.43,-36.11 18.3,-3.35 37.68,-8.9 54.33,-21.13 12.2,-2.22 23.85,-4.43 36.06,-6.1 21.07,-2.78 43.26,0 59.9,-18.89 4.44,-5.02 14.43,-9.45 9.43,-18.91 -3.88,-7.22 -12.2,-7.22 -20.52,-4.99 -24.96,7.76 -50.47,12.78 -74.32,23.32 -31.62,13.9 -68.2,11.12 -96.48,35.02 -44.93,-2.22 -84.31,30.56 -129.25,27.79 -3.87,0 -7.76,4.43 -11.64,6.65 -34.92,16.67 -73.75,18.34 -109.8,29.46 -39.38,12.23 -79.32,30 -121.47,12.78 -8.85,-3.88 -15.5,3.88 -21.61,10.56 -38.26,0.56 -77.1,-0.55 -113.7,15.56 -22.74,3.88 -47.15,-7.8 -67.64,11.67 -18.3,3.88 -37.17,8.33 -55.46,12.23 -40.49,-2.8 -82.09,6.11 -119.25,-21.12 4.43,-4.44 8.32,-8.33 12.76,-12.23 38.82,-4.44 77.1,-9.43 115.37,-19.45 30.51,-7.79 61.54,-20.54 94.82,-15 17.75,2.78 -3.88,-21.12 8.33,-27.78 1.67,-1.11 7.21,-4.43 -1.67,-5.55 -16.08,-1.66 -31.62,-9.45 -48.26,-4.46 -20.49,6.13 -42.68,5.58 -63.2,11.12 -41.05,11.12 -83.76,-11.67 -123.7,11.12 -4.99,2.78 -13.87,2.78 -19.97,-7.24 27.18,-11.65 51.58,-25.54 78.76,-26.09 21.63,-0.56 41.05,-5.02 56.57,-22.24 14.43,3.33 28.29,3.88 43.27,2.78 34.92,-2.78 69.31,-5.55 103.14,-15.55 46.59,-13.9 95.41,-14.46 141.97,-26.68 24.96,-6.65 26.62,-8.87 36.61,-31.11 -33.28,20.02 -67.09,14.99 -99.82,20.02 -68.78,11.65 -135.9,36.11 -206.31,35.55 -7.21,0 -16.63,2.23 -24.96,1.12 -1.67,-0.56 -3.88,-1.12 -5.54,-1.67 -5.55,-2.78 -9.43,-8.9 -9.99,-22.24 35.5,-6.1 71,8.9 108.69,-11.09 21.63,-11.68 55.46,-7.24 83.76,-11.12 69.33,-8.9 136.97,-24.46 206.31,-34.44 27.73,-13.9 60.46,-5.02 88.75,-22.8 -4.44,-7.79 -24.97,-4.99 -9.43,-20.54 8.32,-6.68 18.31,-5.57 28.26,-5.57 26.62,23.9 31.07,23.35 52.69,-9.43 1.67,-2.8 3.33,-4.46 6.66,-2.8 11.65,5.57 26.07,-1.67 37.17,7.79 35.5,13.34 44.37,-16.66 56.57,-42.24 18.31,0 36.61,0 52.7,-12.78 6.65,-4.99 14.94,-4.99 17.72,4.99 6.1,22.24 5.55,22.79 24.41,10.01 26.62,10 48.81,-8.87 73.21,-13.9 7.21,-1.67 11.65,-12.79 5.55,-22.77 -1.11,-7.79 -8.87,-8.35 -12.76,-12.78 0.55,-0.56 0.55,-0.56 1.11,-1.11 19.42,-12.79 41.04,-14.46 62.67,-17.25 18.87,0 36.62,-2.22 51.56,-17.78 27.73,26.68 27.73,26.12 48.82,-7.77 2.77,-4.46 11.64,-12.78 15.52,-4.46 13.32,30.56 22.19,3.35 39.94,-0.55 -17.2,-3.88 -27.18,-7.22 -24.41,-22.77 7.21,-4.44 14.43,-8.9 21.63,-12.79 16.64,0.56 32.17,-2.77 46.59,-23.9 -19.97,6.68 -37.16,-3.33 -51.02,11.67 -3.88,0 -7.77,0.56 -11.1,0.56 -0.55,-11.12 0.56,-22.21 6.1,-32.22 24.97,-3.32 38.27,-31.67 62.68,-36.69 16.08,-5.55 33.28,-9.43 39.94,-30.01 11.06,-4.99 17.72,19.47 25.49,9.45 17.75,-23.34 45.48,-21.1 64.9,-38.9 14.97,12.79 27.73,9.45 40.49,-4.43 16.64,-18.34 39.93,-14.46 59.9,-15 12.76,-0.56 22.74,3.88 28.85,-13.34 4.43,-11.68 11.06,-16.11 13.28,2.22 1.12,6.13 4.44,6.13 7.77,2.22 18.86,-20 42.16,-22.21 66.01,-28.89 12.76,-3.33 31.62,-7.22 39.38,-24.99 8.87,-2.81 14.97,-17.81 24.41,-12.23 46.04,24.43 73.19,-27.79 112.02,-35.58 14.43,-2.78 32.72,-18.89 51.58,-22.77 9.98,-2.22 19.98,-2.78 25.52,-14.45 22.74,-16.67 52.14,-16.11 73.77,-36.14 10.54,-2.78 25.49,-2.78 25.49,-18.89 -0.55,-18.33 -15.5,-7.21 -23.82,-10.56 -23.86,-9.98 -41.61,9.45 -62.12,13.34 -62.68,12.79 -120.36,43.35 -180.8,62.81 -33.83,10.54 -67.67,25.55 -102.61,25.55 -16.64,0 -26.07,0.55 -33.83,16.11 -15.53,8.89 -31.6,16.1 -48.24,21.68 -38.82,13.34 -80.98,12.78 -117.03,36.66 -32.73,-6.1 -58.8,17.8 -88.73,24.46 -15.53,-0.55 -31.62,-0.55 -47.15,-1.11 -9.42,0 -23.85,13.34 -26.62,-1.11 -3.32,-15.55 15.53,-15.55 25.52,-21.13 5.55,-2.78 13.32,-1.11 18.86,-3.32 11.1,-4.99 26.62,-4.99 29.4,-23.32 22.16,-10.01 46.01,-15 68.75,-22.24 22.74,-7.21 55.47,-12.23 64.35,-36.67 18.3,-47.81 62.67,-65.58 84.3,-107.81 12.73,-25.01 41.58,-30.56 55.44,-54.47 51.02,-49.99 98.17,-103.9 143.65,-160.58 11.65,-3.33 17.17,-16.67 18.84,-25.55 8.87,-52.8 49.36,-90.59 54.92,-145.03 1.11,-11.12 3.87,-22.79 13.87,-29.45 5.54,-0.56 7.21,-5.02 9.98,-9.45 21.63,-41.68 0.55,-79.45 -12.76,-115.03 -10.54,-28.34 -23.3,-59.46 -50.47,-76.12 -27.15,-36.69 -62.1,-62.23 -102.03,-77.24 -23.85,-8.89 -47.15,-19.47 -67.11,-36.13 -43.82,-36.11 -94.83,-53.91 -144.74,-75.57 -47.71,-20.57 -96.51,-40.57 -139.76,-81.69 60.99,-8.87 114.24,-37.22 173.03,-29.46 -3.88,7.24 -21.07,1.67 -15.52,15.56 3.32,8.35 15.52,2.22 23.29,2.22 12.76,0 12.76,-7.77 9.43,-18.33 36.03,2.22 72.08,6.68 108.13,-3.32 14.42,-3.88 27.73,2.22 41.04,6.1 11.1,2.8 19.42,7.79 16.64,25.57 -1.11,4.99 -5.54,18.33 8.33,30.01 26.62,22.23 54.91,13.89 82.06,20.02 92.08,20 178.05,-6.68 262.34,-44.45 12.2,-5.57 22.74,-2.8 34.94,-2.25 24.41,0.56 48.82,25.57 79.32,0.56 -27.18,-6.1 -49.36,-12.21 -72.12,-16.11 -9.98,-1.67 -18.86,-3.88 -26.06,-11.09 11.65,-10.01 -4.43,-23.91 2.22,-31.15 7.77,-7.77 19.98,-5.54 29.4,0 13.87,8.35 24.41,3.35 38.27,-8.32 -25.52,-6.69 -46.59,-15 -68.22,-17.22 -27.18,-2.25 -23.85,-23.91 -23.3,-41.68 1.11,-20.58 16.64,-12.79 27.73,-12.23 36.61,1.11 73.77,1.11 110.38,2.22 -26.06,-15 -53.8,-9.45 -80.98,-12.23 -9.43,-1.11 -22.18,1.11 -21.63,-12.23 0,-15.56 -11.09,-27.79 -8.87,-45.56 34.39,2.77 67.67,6.12 100.95,8.89 5,0.56 12.21,3.88 13.32,-4.99 1.67,-12.23 -7.21,-8.35 -13.32,-8.89 -27.73,-1.67 -55.46,-3.88 -83.2,-4.99 -18.3,-0.56 -34.94,-0.56 -20.52,-30.01 3.33,-6.69 -1.66,-16.14 -3.32,-23.91 -4.44,-28.89 -23.85,-52.8 -26.62,-78.33 -6.1,-50.02 -37.17,-74.48 -68.75,-92.82 -87.09,-50.55 -171.95,-108.89 -271.76,-127.81 -4.44,-10.53 -16.64,-4.43 -22.19,-12.78 1.67,-0.56 3.33,-1.12 4.99,-1.12 6.11,0 12.76,1.12 18.86,-0.55 29.96,-7.77 51.59,-26.09 65.46,-58.9 4.43,-9.98 17.72,-17.22 11.65,-31.12 -5.55,-12.79 -17.2,-8.33 -27.18,-7.21 -4.99,-1.12 -9.98,-2.23 -15.53,-2.81 -7.77,-9.42 -18.3,-4.99 -27.73,-6.1 -10.53,-8.35 -21.07,-14.45 -34.39,-12.23 -8.32,-11.12 -6.1,-34.44 -27.73,-31.67 -8.87,-4.44 -18.3,-8.9 -27.17,-13.9 -20.52,-30.01 -53.25,-13.9 -78.74,-25.57 -1.66,-0.56 -3.32,-0.56 -4.99,-1.11 8.33,-17.22 2.78,-32.78 -7.76,-46.68 24.96,-10 48.23,-6.1 71.52,-7.21 13.87,-0.55 25.52,-3.9 32.73,-18.91 32.72,-18.34 71,-16.11 112.04,-36.11 -21.07,-7.24 -34.39,-8.35 -48.26,-8.35 -15.52,-14.46 -25.52,-27.23 5.55,-32.22 5.55,-0.56 12.2,-1.67 13.87,-8.35 1.67,-8.87 -7.21,-10.54 -11.65,-14.46 -5.54,-3.87 -11.65,-5.54 -17.75,-8.32 -0.55,-3.88 10.54,-8.9 2.78,-10.56 -25.52,-5.55 -48.26,-26.68 -76.55,-20.55 1.67,-26.11 24.41,-48.91 9.98,-78.91 -3.32,-6.65 7.77,-19.99 19.98,-21.1 5.54,-0.55 12.76,-3.32 6.1,-11.11 -10.54,-12.79 -6.66,-24.46 1.11,-36.11 6.66,-10.01 2.78,-16.14 -6.1,-17.81 -22.19,-4.99 -16.08,-28.89 -23.85,-43.33 16.64,-7.79 14.97,-38.9 33.83,-39.45 18.31,-0.56 13.87,-14.46 18.31,-23.34 2.22,-5 -5,-12.79 2.77,-16.67 24.97,-11.11 6.11,-20.01 -1.66,-28.34 -9.43,-10.56 -21.08,-12.23 -33.84,-8.89 -16.64,-5 -32.72,-9.44 -49.36,-14.45 -4.43,-10 -21.63,1.11 -20.52,-14.45 0.56,-11.12 8.33,-17.78 18.87,-20.56 3.32,-1.11 7.21,-2.78 9.98,-5 11.65,-11.67 20.52,-23.34 -2.23,-33.34 -12.75,-5.55 -24.96,-12.78 -37.68,-18.89 9.4,-20.56 23.27,-30.01 41.57,-28.89 19.42,1.11 33.84,-8.35 48.26,-20.56 8.87,-2.23 18.86,-2.23 26.62,-6.67 9.98,-5.56 29.4,-1.67 26.07,-23.9 -2.22,-18.33 -11.65,-31.67 -29.96,-31.67 -27.73,-31.68 -63.78,-48.35 -99.84,-64.47 -18.83,-14.99 -38.8,-26.66 -61.54,-31.67 -8.32,-2.23 -17.75,-3.33 -19.97,-13.9 -3.32,-17.22 -17.75,-18.34 -27.17,-27.22 -23.3,-20.56 -67.67,-6.67 -73.22,-55.57 0,-2.23 -4.43,-5.55 -6.65,-5.55 -39.36,0.55 -71.53,-25.57 -108.69,-33.9 -44.37,-10 -88.75,-18.89 -132.54,-35.56 -33.28,-12.79 -67.66,-30.57 -104.83,-26.67 -16.64,-3.33 -32.72,-8.34 -49.36,-10.56 -75.41,-10.55 -147.51,-43.35 -224.61,-44.45 -4.99,-2.78 -10.54,-4.44 -16.09,-6.11 8.87,-3.33 17.2,-7.23 24.97,-13.34 19.41,-3.33 30.51,-18.9 42.71,-33.34 10.54,3.89 21.63,6.67 32.17,10.56 13.31,9.44 28.84,11.11 43.26,15 24.97,14.45 51.56,21.11 79.29,25.01 23.3,17.78 51.03,21.66 78.21,27.78 23.29,5.55 43.81,30.01 71,12.78 2.22,-1.11 6.65,2.23 10.53,3.33 24.38,7.23 48.24,15 72.63,20.55 9.98,2.23 26.07,7.79 28.29,-8.88 2.22,-14.45 -11.65,-23.34 -22.74,-26.11 -12.2,-3.33 -26.07,-2.79 -38.82,-2.23 -34.92,1.67 -61.54,-11.11 -77.64,-48.35 -5.54,-12.78 -17.19,-16.67 -31.06,-16.11 -22.19,0.56 -44.93,2.78 -66.01,-8.34 -7.21,-38.89 -34.39,-30.56 -58.24,-31.12 -5.52,0 -11.07,0.55 -16.61,1.11 -32.17,3.89 -40.49,-3.33 -45.48,-38.89 -0.56,-5 -3.33,-7.23 -7.22,-7.23 -14.97,0 -27.73,-8.88 -43.27,-6.67 -6.1,1.11 -12.2,2.23 -18.3,3.33 13.87,-9.44 29.95,-14.45 46.59,-18.89 19.97,1.11 32.72,-11.67 39.38,-30.01 6.66,-18.34 16.64,-27.78 33.28,-28.9 6.1,-0.55 12.17,-1.11 11.06,-10 -1.11,-12.22 6.11,-21.11 8.87,-31.67 23.86,-12.79 38.27,-40.01 62.12,-53.91 4.44,-2.78 4.99,-10 7.77,-13.89 10.54,-16.67 15.53,-40.57 36.06,-46.13 41.04,-10.55 64.9,-48.34 97.04,-73.34 11.09,-8.89 20.51,-20.56 33.83,-26.11 14.43,-5.56 22.74,-19.45 19.42,-34.46 -6.11,-26.66 3.88,-43.89 19.97,-61.11 6.1,-6.67 11.65,-16.11 17.75,-23.34 9.98,-13.34 17.75,-32.23 35.5,-35.57 11.65,2.79 15.53,-11.11 25.52,-15 21.63,-7.78 40.49,-23.89 58.79,-40 6.08,-5.56 -0.02,-31.13 19.39,-15.56 0.56,0 2.78,-3.33 3.88,-3.89 23.86,-7.78 25.52,-35.56 37.72,-53.9 8.87,-13.34 2.22,-17.23 -8.33,-18.34 -4.43,-0.56 -8.87,1.11 -13.31,1.67 -21.08,2.23 -33.84,-6.11 -39.91,-25.56 -0.56,-1.67 -3.33,-3.89 -3.88,-3.89 -11.09,4.44 -15.53,-3.89 -23.85,-10 -12.76,-8.89 -17.2,-22.78 -19.98,-33.89 -6.65,-24.46 -19.97,-41.68 -38.82,-53.91 -1.11,-8.88 -2.78,-10.55 -14.43,-12.78 -5.54,-1.12 -13.87,0 -13.31,-7.78 1.11,-15.56 -7.21,-32.23 0.55,-46.13 14.98,-25.56 -7.21,-37.23 -16.63,-50 -8.33,-11.11 -9.43,9.44 -16.09,12.78 -1.66,0.56 -3.88,1.11 -5.54,0.56 -17.75,-1.67 -32.17,8.88 -48.26,13.89 -16.64,5 -34.37,7.79 -51,5.56 -15.53,-2.23 -29.96,-8.34 -45.49,1.67 -4.43,2.78 -10.53,3.89 -12.2,-3.89 -2.78,-12.22 -7.21,-24.45 -7.21,-36.67 0,-17.79 -6.66,-26.67 -22.19,-26.12 -7.77,-6.67 -21.07,-4.44 -23.29,-20.01 -0.56,-5 -3.88,-4.44 -6.66,-1.11 -18.86,21.67 -34.39,11.11 -49.36,-5.56 -3.88,-12.22 -3.88,-24.45 -4.44,-37.23 -0.55,-22.78 -18.28,-34.45 -44.9,-24.45 17.2,0.55 19.98,13.89 28.85,17.78 -6.66,16.11 -16.09,8.34 -24.97,5 -6.65,0.56 -12.76,-27.22 -19.41,0 -1.11,3.89 -5.55,2.23 -8.33,1.67 -4.99,-0.56 -2.78,-3.89 -3.32,-7.23 -2.78,-30 -9.43,-36.67 -36.61,-38.33 -10.54,-2.23 -21.08,-0.56 -31.07,-10.56 -8.32,-8.89 -26.62,-5.56 -29.95,3.89 -6.1,16.66 -16.08,15.55 -26.62,17.22 -1.67,-6.67 -11.09,-8.34 -9.43,-17.22 3.88,-20.56 -9.4,-15 -18.83,-15 -3.33,0 -7.77,7.22 -9.43,3.33 -8.87,-21.12 -20.52,-3.33 -28.28,-1.12 -7.22,2.23 -17.75,5 -21.08,15.56 -1.11,2.78 1.67,5 3.88,6.11 9.43,5.56 18.31,0.56 27.18,-2.22 2.22,-0.56 3.32,-4.45 4.99,-5.56 3.88,-2.78 8.87,-4.44 11.65,0.56 6.65,11.11 19.97,14.45 23.85,28.33 1.11,3.89 3.3,8.89 -3.88,8.89 -8.87,-9.44 -21.63,-1.67 -30.51,-9.44 -11.09,-9.44 -26.07,-2.23 -37.71,-8.89 -1.11,-2.78 -4.99,-5 -5.55,-3.33 -4.43,13.9 -13.31,10 -21.63,7.79 -8.32,-2.79 -17.19,-4.45 -24.96,-8.35 -9.43,-4.44 -7.77,-13.33 -0.56,-16.11 12.76,-5 20.52,-13.34 22.19,-27.78 0.55,-4.44 8.32,-1.67 6.1,-7.23 -1.67,-4.44 -6.66,-4.99 -9.98,-3.88 -17.2,8.89 -34.39,1.11 -51.59,3.33 -7.21,-7.23 -12.75,-1.67 -19.41,6.11 7.77,-18.34 4.43,-24.45 -11.09,-18.89 -4.44,-1.67 -5.55,-5.56 -7.22,-9.45 -2.22,-4.44 -4.43,-8.34 -6.66,-12.78 -2.22,-5.56 -6.1,-8.89 -9.98,-4.44 -13.84,16.11 -28.26,5.55 -42.68,3.33 -3.88,-20.01 -7.77,-22.23 -19.98,-12.23 1.12,10.56 -3.88,13.34 -12.2,12.23 -10.54,-1.67 -20.52,0 -29.4,7.78 -6.66,3.89 -3.88,10.55 -3.88,16.67 0,2.78 0,5.55 -0.55,8.89 -9.43,3.32 -4.99,14.45 -8.87,20.55 -11.1,2.78 -21.08,0 -29.96,-7.78 -1.11,0 -1.66,0 -2.77,-1.12 -0.56,-3.88 -1.12,-7.78 2.22,-11.66 13.87,-16.12 13.87,-15.56 -6.1,-23.34 -4.44,-1.67 -8.87,-4.45 -13.87,-4.45 3.32,-2.78 6.65,-6.11 9.42,-8.88 6.66,-6.12 3.32,-13.34 2.22,-20.01 -13.87,9.44 -15.52,-14.45 -26.62,-12.23 -7.77,3.33 -12.76,15.56 -23.82,8.34 -3.88,-2.22 -7.8,-12.78 -11.65,1.12 -3.88,12.22 -9.98,23.89 -14.97,35.56 -1.67,3.89 -3.33,7.78 -8.33,8.88 -15.52,0.56 -32.16,16.68 -45.48,-4.99 18.86,-16.67 -2.78,-21.12 -7.77,-30.57 4.44,-5 15.53,-2.23 12.76,-15.56 -1.11,-5.55 -1.11,-11.66 -6.65,-13.33 -6.11,-1.67 -13.87,2.78 -14.43,6.67 -1.67,11.67 -13.87,14.45 -14.97,25.56 -3.33,2.23 -6.66,8.34 -10.54,0.56 -6.66,-11.67 -14.97,-3.33 -23.3,-3.33 2.78,12.22 -13.87,14.45 -11.09,26.67 0,1.11 1.67,1.67 2.78,2.22 9.43,7.23 27.73,-1.11 28.29,20.56 -3.33,2.23 -6.1,0 -8.87,-1.11 -36.06,-14.46 -40.49,-22.79 -31.07,-61.12 1.11,-4.45 2.22,-10.56 -2.78,-12.79 -4.43,-2.22 -10.53,-4.44 -13.31,2.23 -7.77,18.89 -13.87,6.67 -20.52,-0.56 -0.55,-22.78 -13.29,-10 -22.16,-9.44 -4.43,-3.89 -8.87,-8.89 -15.53,-7.78 -2.22,-11.11 -7.76,-11.67 -14.42,-5 -3.88,3.33 -6.66,8.34 -12.21,8.34 -16.63,-8.34 -34.38,-12.79 -48.81,-26.12 2.78,-2.78 5.55,-6.11 8.32,-8.88 2.23,1.67 4.44,3.33 7.22,5.55 6.65,12.79 12.76,15.56 19.41,-0.55 0,-2.78 0,-5.56 0,-8.89 0.56,-5.55 3.33,-11.67 -2.77,-15 -12.76,-6.67 -32.17,6.12 -35.5,22.78 -12.21,5.56 3.88,13.9 -2.23,21.12 -10.53,-6.12 -21.07,-7.79 -28.28,7.78 1.11,-4.44 4.99,-7.23 2.77,-10.56 -9.98,-15 -22.18,-3.33 -32.72,-2.22 -12.76,1.67 -4.43,8.88 -1.66,14.45 2.22,3.89 0.55,7.23 -2.78,8.89 -14.97,6.11 -6.66,8.88 1.11,12.78 6.1,3.33 7.77,7.78 3.32,14.45 -1.66,2.79 2.23,11.11 -2.78,9.44 -14.42,-5 -25.51,4.45 -37.71,7.23 -6.07,1.67 -9.42,-3.89 -11.62,-8.89 -2.22,-4.99 0.56,-10 3.85,-12.78 13.32,-11.11 13.32,-12.22 1.11,-26.11 -8.84,-7.78 5,-7.78 3.33,-12.78 8.32,-13.9 14.42,-27.23 -6.08,-34.45 -9.42,-7.79 -16.64,-9.45 -15.52,7.78 0.55,7.22 1.11,16.11 -8.33,5.55 -8.87,-11.66 -16.64,-13.33 -22.74,2.79 -6.1,1.11 -10.54,7.22 -18.31,-0.56 -7.21,-7.22 -18.3,-5.55 -27.73,-0.56 -13.87,17.79 -27.73,20.01 -46.59,8.89 -3.32,-1.67 -8.87,-4.44 -10.54,-2.78 -15.52,17.22 -26.62,2.22 -39.38,-5.56 -4.43,-2.78 -11.64,-3.33 -16.61,-1.11 -10.53,5 -21.07,3.33 -31.62,3.33 2.22,-13.34 10.54,-12.23 19.42,-12.78 13.29,-0.56 18.28,-11.68 9.95,-22.23 -11.06,-15 -20.49,-35.01 -43.78,-25.01 -4.44,-8.88 -12.76,-7.78 -19.98,-7.78 -15.52,0.56 -30.51,0.56 -37.16,-19.45 -1.67,-4.45 -7.77,-6.12 -8.87,-2.79 -2.78,7.79 -5.55,16.67 -4.99,25.01 0.55,5 6.65,8.34 13.87,7.23 4.99,-1.11 11.09,2.78 16.64,1.67 13.87,-3.33 18.86,5 21.07,17.78 0,2.78 0,5.56 0,8.34 -3.32,2.23 -7.21,4.44 -10.54,6.67 2.22,4.44 7.22,4.44 9.98,7.23 6.11,5.55 16.09,-3.33 19.98,7.22 -11.1,6.11 -24.97,1.12 -35.5,8.89 -14.98,-3.89 -28.85,-13.9 -44.93,-10 -11.09,-10 -2.22,-22.23 -3.32,-33.9 0,-1.11 0,-3.88 -0.56,-3.88 -19.42,-4.45 -38.27,-14.45 -58.24,-12.78 -8.32,0.55 -11.65,0 -16.08,-8.89 9.98,1.67 18.3,3.88 26.62,3.33 4.99,0 12.76,4.44 15.52,-2.78 2.78,-7.23 -6.1,-9.45 -8.32,-15 0,-3.89 0,-8.34 0.56,-12.23 0,-5.56 4.99,-12.78 -2.23,-16.67 -8.32,-4.44 -9.98,4.44 -12.76,10 -0.55,1.67 -3.32,1.67 -4.99,2.23 -9.98,-2.23 -19.41,-2.79 -22.18,11.67 -11.62,-9.45 -24.94,1.11 -38.24,-5.56 -14.98,-7.23 -33.28,-15.55 -47.71,-12.23 -14.97,3.89 -22.74,-1.11 -32.16,-9.44 0,-1.67 0,-3.33 0,-5 2.22,-3.33 5.54,-6.67 -0.56,-9.44 -7.21,-3.33 -14.43,-3.89 -21.63,-3.33 -14.42,3.33 -28.29,2.78 -41.6,-5 -11.65,-5 -22.74,-11.67 -34.36,0 -5.55,-1.11 -0.58,17.78 -11.1,7.23 -2.22,-8.89 -6.65,-19.46 -14.42,-6.67 -7.77,13.33 -17.2,10.55 -27.73,11.11 -6.1,0 -13.32,-3.33 -18.86,2.22 0,10 11.64,6.12 12.2,15.56 -8.87,5 -16.08,14.45 -28.29,8.34 -6.65,-3.33 -14.97,-3.33 -22.18,-2.78 -8.87,0.55 -3.33,-21.12 -17.2,-12.79 -7.77,5 -1.66,16.12 -7.77,20.56 -8.32,6.11 -43.26,-7.23 -48.25,-18.34 -5,-11.11 -12.21,-16.67 -23.86,-17.22 -9.95,-0.56 -21.04,-2.23 -24.93,-15 -4.44,-13.9 -10.54,-7.79 -17.2,-3.33 -24.96,16.67 -28.28,16.11 -43.81,-7.79 -3.33,5 -6.66,9.45 -9.98,14.46 -7.77,11.11 -41.6,8.34 -43.82,-5 -2.78,-19.46 -13.87,-22.23 -27.73,-22.23 -1.67,0.56 -3.88,1.11 -5.54,1.67 -19.98,5 -23.86,10 -14.43,18.9 13.31,12.78 -15.53,17.22 -3.32,28.34 4.43,3.88 8.32,5.55 13.87,4.99 7.21,-0.55 14.42,-3.32 22.18,-3.88 1.67,-0.56 3.32,-1.11 5.55,-1.67 0,0.56 0,0.55 0,1.11 -2.23,0.56 -3.33,1.12 -4.99,1.12 -11.65,1.66 -23.86,2.78 -16.09,22.22 0.56,1.11 -2.22,2.78 -3.88,3.89 -3.32,1.11 -6.1,2.22 -9.42,3.33 -4.99,-1.12 -9.98,-3.33 -14.97,-4.45 -0.56,-0.55 -1.11,-1.67 -2.23,-2.78 -17.75,-2.23 -36.03,-8.34 -51.55,8.89 -3.88,4.44 -9.43,4.44 -14.43,2.22 -19.42,-8.34 -39.38,-13.34 -61.01,-12.22 -7.77,0.55 -13.87,-4.45 -7.21,-15 0.55,-2.23 1.11,-3.89 1.11,-5.56 4.44,-4.44 9.43,-8.88 14.43,-12.22 2.22,0 4.43,0 6.65,0 7.77,-1.12 6.66,5.55 8.33,10.55 10.54,27.23 40.49,33.9 57.68,13.34 4.44,-5.56 8.87,-7.23 14.98,-5 7.21,2.79 14.4,3.89 14.94,-8.34 0.56,-9.44 1.11,-21.11 -13.29,-18.89 -4.99,8.88 -8.32,15.55 -18.86,4.44 -7.21,-8.34 -18.86,-11.67 -29.4,-11.67 -10.53,0 -17.19,-7.23 -30.51,-10.56 7.22,-2.22 10.54,-4.44 11.65,-3.32 8.87,9.99 21.63,3.32 31.62,8.88 5.55,3.33 10.54,1.11 11.09,-6.11 1.12,-9.45 -13.87,-26.67 -21.62,-22.78 -11.65,6.66 -20.52,0.55 -29.96,-2.23 -14.42,-3.89 -27.17,-3.89 -32.72,16.11 -12.76,-15.55 -26.06,-13.34 -40.49,-8.89 -5.55,1.67 0.55,16.12 -9.43,8.34 -1.66,-8.34 -9.98,-12.78 -27.73,-16.11 -9.98,1.12 -19.39,8.34 -28.81,-2.78 -4.44,-5.56 -13.32,-1.12 -12.76,5 2.22,17.78 -8.87,14.45 -17.2,16.11 -3.88,-5 -9.42,-3.89 -13.87,-4.44 -21.07,-0.56 -42.16,-0.56 -63.23,-0.56 -6.1,0 -12.76,1.11 -16.64,-6.67 3.88,-4.44 9.43,-1.67 13.87,-3.33 6.1,-2.78 17.75,2.78 17.2,-9.44 -0.56,-9.44 -11.1,-8.34 -17.2,-6.67 -32.16,6.67 -62.12,-25.01 -95.38,-6.67 -0.55,0 -1.11,0 -1.67,-0.56 -9.42,-9.44 -21.62,-6.11 -32.16,-6.67 -19.97,-5.55 -40.49,2.23 -60.46,-1.11 -35.5,-4.44 -71,-6.11 -105.95,-13.34 -9.4,-2.23 -19.39,-1.11 -28.82,0 -9.98,1.11 -21.07,8.89 -31.62,3.89 -20.51,-8.89 -42.71,0.55 -63.23,-8.89 -4.43,-2.22 -13.31,2.23 -7.77,7.79 21.63,21.66 9.43,34.44 -6.65,48.34 -13.32,-5 -27.18,-5.55 -41.61,-3.89 -12.2,-6.66 -24.96,-3.88 -37.68,-5 1.67,-6.11 11.06,-9.99 4.96,-17.78 -5.52,-7.22 -12.17,-3.33 -18.83,-0.55 -3.88,1.67 -8.33,3.33 -12.21,4.44 -1.11,-1.67 -2.22,-2.78 -3.32,-4.44 -3.32,-7.23 -8.32,-12.79 -14.43,-17.23 -8.87,-8.34 -8.87,-13.34 4.44,-12.78 4.43,0 10.54,0 11.09,-5.56 0.56,-7.78 -6.1,-6.11 -10.54,-7.22 -12.75,-3.89 -25.51,-5.56 -38.82,-5.01 -47.15,-12.78 -92.63,-0.55 -139.19,7.79 24.38,5.55 48.23,18.34 72.63,2.22 6.1,16.67 -6.11,31.68 -1.67,46.68 -4.99,-4.44 -11.65,-3.89 -18.31,-4.44 -6.1,-0.56 -11.64,0.55 -11.09,8.88 0.56,14.46 10.54,15 19.97,15 6.11,-0.55 13.32,-1.67 13.87,-11.67 -1.11,-3.33 -2.22,-5.55 -3.88,-6.66 6.66,-0.56 6.66,-6.67 8.33,-10 3.88,-11.12 13.87,-16.12 20.52,-23.9 12.2,-13.34 13.87,8.34 21.63,11.11 6.65,7.78 -4.44,12.23 -3.33,17.78 4.44,19.46 16.64,7.79 26.07,7.23 5.54,9.45 14.97,11.11 23.29,15 -4.43,1.67 -8.87,5 -13.87,8.89 2.23,3.33 4.99,3.89 7.77,5.55 -12.76,8.34 -27.17,12.79 -42.16,10.56 -27.17,-3.89 -53.8,-10 -81.53,-8.34 -3.33,-16.11 -17.75,-20.56 -26.07,-31.68 0.56,-15.55 -11.62,-21.67 -20.49,-23.34 -19.42,-2.78 -25.52,-20.55 -36.61,-32.78 -3.88,-10 -9.43,-13.89 -20.52,-16.11 -17.19,-3.33 -33.28,0.56 -49.36,-1.67 -32.16,-4.44 -64.9,-0.56 -97.04,-5 -8.32,-1.11 -15.52,0 -14.97,12.78 0.56,10 -6.66,7.78 -11.09,10 -9.98,5 -5.55,-5 -7.21,-8.34 -2.23,-5 -5.55,-7.22 -10.54,-6.11 -3.88,1.11 -7.77,2.23 -11.65,2.78 -3.32,-3.88 -6.66,-8.34 -11.65,-8.88 -9.42,-7.23 -18.86,-1.67 -26.06,2.78 -4.44,2.78 3.88,8.34 5.54,13.34 -3.87,10 -17.75,11.67 -17.75,23.89 0,2.23 -0.55,3.33 -1.11,5 -9.42,-0.55 -17.19,-3.33 -24.4,-9.44 0.55,-2.22 1.11,-5 -1.12,-5.56 -2.77,-1.11 -4.43,-1.67 -5.54,-2.22 -0.56,-0.56 -0.56,-1.12 -1.11,-2.23 0.55,-1.11 3.32,-2.22 6.65,-4.44 4.44,-3.33 9.43,-12.79 6.66,-19.45 -3.32,-7.23 -12.76,-6.12 -17.19,-2.23 -11.65,9.44 -28.29,12.78 -35.5,28.89 1.66,5.56 -6.1,10 -1.11,15.56 12.2,13.34 3.32,18.34 -7.22,22.23 -1.11,0.55 -2.22,0.55 -3.32,0.55 -4.99,-0.55 -9.98,-0.55 -15.5,1.67 -17.75,-5.55 -35.5,-11.11 -53.25,-12.22 2.78,-2.79 5.54,-5 7.77,-8.34 7.21,1.11 16.08,5 19.41,-4.44 1.12,-2.23 0.56,-3.89 0.56,-5.56 2.22,0.55 3.32,-0.56 6.1,1.11 0.56,0.56 2.78,-2.78 3.88,-3.89 12.2,-9.44 0,-15.55 -1.67,-23.89 -3.32,-15 -8.32,-12.78 -16.08,-6.11 -1.67,-1.67 -2.78,-1.67 -4.43,-2.79 0.55,-8.34 7.21,-18.34 -3.33,-23.34 -12.2,-6.11 -14.97,6.67 -18.86,15 -1.11,2.23 -4.99,2.23 -7.21,3.33 -14.97,-3.33 -28.29,-3.88 -32.72,17.23 -1.12,-1.11 -2.23,-0.56 -3.33,-1.67 0.56,-4.45 0.56,-8.34 -7.21,-6.67 -3.32,0.56 -7.21,1.11 -9.98,2.22 -11.65,0.56 -23.85,3.89 -35.5,-2.22 -22.18,-11.11 -48.81,-23.34 -70.41,-17.78 -22.18,5.55 -33.28,-1.12 -47.15,-13.9 0,-2.78 0,-5 0,-7.78 3.33,-5 7.77,-9.45 -0.55,-13.34 -10.54,-4.44 -21.08,-5.56 -32.17,-5 -21.07,5 -41.6,3.89 -61.01,-7.78l-0.55 0c-16.64,-7.23 -33.84,-17.23 -50.48,0 -8.29,-1.67 -1.11,26.66 -16.61,11.11 -3.32,-13.34 -9.98,-28.34 -21.07,-10 -11.65,19.45 -25.52,16.11 -41.05,16.11 -9.42,0 -19.97,-5.55 -27.73,2.79 0,14.45 17.19,8.88 17.75,23.33 -13.31,7.79 -23.85,21.12 -42.16,12.23 -9.42,-5 -22.18,-4.44 -32.72,-3.89 -13.31,0.56 -5.55,-31.12 -24.96,-18.89 -11.65,7.22 -2.78,24.45 -11.09,30.56 -12.18,8.89 -63.77,-10.55 -70.98,-26.67 -7.77,-16.66 -18.3,-24.45 -34.94,-25.56 -14.97,-0.56 -31.07,-3.33 -36.61,-21.67 -6.66,-20.56 -15.53,-11.11 -24.97,-5 -36.61,24.45 -41.6,23.34 -64.31,-11.67 -4.99,7.23 -9.98,13.9 -14.97,21.11 -11.65,16.67 -61.57,12.23 -64.35,-7.22 -4.43,-28.9 -20.52,-33.34 -41.04,-32.78 -2.78,1.11 -5.55,1.66 -7.77,2.22 -29.96,7.23 -35.5,14.46 -21.63,27.78 19.42,18.9 -22.74,25.01 -4.99,42.24 6.1,6.11 12.76,8.34 19.97,7.78 11.09,-1.11 21.63,-5 32.72,-6.11 2.78,-0.56 4.99,-1.67 8.33,-2.23 0,0.56 0,1.11 0,1.67 -2.78,0.56 -5.55,1.11 -7.77,1.67 -17.2,2.79 -34.95,4.45 -23.3,32.78 0.56,2.23 -3.32,3.89 -6.1,5.56 -4.44,1.67 -9.43,3.33 -13.87,4.44 -7.77,-1.67 -14.97,-5 -22.19,-6.11 -1.11,-1.11 -2.22,-2.23 -2.77,-3.89 -26.62,-3.33 -53.23,-12.22 -75.97,13.34 -5.54,6.12 -14.42,6.12 -21.63,3.33 -28.84,-12.22 -58.79,-19.45 -89.85,-17.78 -11.65,0.56 -20.52,-6.67 -11.09,-22.23 1.11,-2.78 1.67,-6.11 2.22,-8.88 6.66,-6.67 13.87,-12.79 21.07,-17.78 3.33,0 6.66,0 9.99,0 11.09,-1.67 9.98,8.34 12.76,15.55 15.52,40.01 59.35,50.56 85.41,19.45 7.21,-8.34 12.76,-10.55 21.63,-7.22 10.51,3.88 21.6,5.55 22.16,-12.23 0.56,-14.45 1.11,-31.12 -19.95,-27.78 -7.21,13.34 -12.76,23.34 -27.73,6.67 -11.09,-12.23 -28.28,-17.23 -43.81,-17.23 -15.53,0 -25.52,-10.55 -45.48,-16.11 10.53,-3.33 16.08,-6.67 17.19,-5 13.32,14.45 32.17,5 46.59,13.34 7.77,4.44 15.53,1.67 16.64,-8.88 1.67,-13.9 -21.07,-40.01 -32.16,-33.34 -16.64,9.44 -29.96,1.11 -44.37,-2.79 -21.08,-5.55 -39.94,-5.55 -48.82,23.9 -18.86,-23.34 -38.24,-20.01 -60.44,-13.34 -8.32,2.23 0.56,23.9 -13.87,12.78 -2.77,-12.22 -14.42,-18.89 -40.49,-23.89 -14.42,2.22 -28.84,12.22 -42.71,-4.45 -7.21,-8.34 -19.97,-1.67 -18.86,7.23 3.32,26.11 -12.76,21.67 -25.52,23.9 -5.55,-7.23 -13.87,-6.12 -21.07,-6.12 -31.04,-0.56 -62.1,-0.56 -93.16,-0.56 -9.43,0 -18.86,1.67 -24.41,-10 6.1,-6.66 14.43,-2.78 20.52,-4.99 8.87,-3.89 26.62,3.88 25.52,-14.46 -1.11,-14.45 -16.09,-12.22 -25.52,-10 -47.71,10 -92.08,-36.67 -140.89,-10 -0.56,0.56 -1.67,-0.55 -2.75,-1.11 -14.43,-13.89 -31.62,-8.88 -47.71,-10 -29.95,-8.34 -59.9,3.33 -89.85,-1.67 -52.14,-6.11 -104.8,-8.88 -156.39,-20.01 -13.87,-2.78 -28.28,-1.67 -43.27,0.56 -14.97,2.23 -31.06,12.78 -47.14,5.56 -29.96,-13.34 -63.21,0.55 -93.16,-13.34 -6.66,-2.79 -19.97,3.33 -11.65,11.11 32.17,31.68 13.87,51.12 -9.98,71.69 -19.97,-7.23 -40.49,-8.34 -61.01,-5.56 -17.75,-10 -37.17,-5.56 -56.02,-7.23 2.22,-8.88 16.08,-14.45 7.21,-26.11 -8.32,-10.55 -18.3,-5 -27.7,-0.55 -5.55,2.78 -12.2,4.44 -18.31,6.66 -1.66,-2.22 -3.32,-4.44 -4.99,-6.66 -4.99,-10.56 -12.76,-18.9 -21.07,-25.57 -13.32,-12.78 -12.76,-19.45 6.1,-18.9 6.66,0 15.53,0 16.08,-7.78 1.12,-11.11 -9.42,-8.88 -16.08,-11.11 -18.86,-5.56 -37.71,-8.34 -57.13,-7.23 -69.33,-18.34 -137.53,-0.55 -205.75,11.11 36.06,8.34 71.56,27.23 107.58,3.33 9.42,25.01 -9.43,47.24 -2.23,70.58 11.65,0 11.1,-10 13.32,-15.56 6.1,-16.67 20.52,-23.89 30.51,-35.01 17.75,-20.01 19.97,12.79 31.62,16.67 9.42,11.12 -6.66,17.78 -4.44,26.67 6.66,28.89 24.97,11.67 38.83,10.56 9.42,16.11 27.17,16.11 40.49,24.45 1.67,0.56 3.32,1.11 4.99,1.67 0.55,0 1.11,2.22 0.55,2.22 -23.29,26.68 -53.25,35.01 -84.3,30.57 -39.94,-5.56 -79.31,-15 -120.33,-12.23 -4.44,-23.89 -26.07,-30.56 -38.27,-46.67 0.55,-23.34 -17.2,-32.23 -30.51,-34.45 -28.84,-3.89 -37.17,-30.57 -53.81,-48.91 -6.1,-14.45 -14.42,-21.11 -30.51,-23.89 -24.96,-5 -49.33,1.11 -73.18,-2.23 -47.71,-6.11 -95.96,-0.56 -143.66,-7.23 -11.65,-1.67 -23.27,0 -21.6,18.34 1.11,14.45 -9.98,11.67 -16.64,15 -14.97,7.23 -7.77,-7.22 -10.54,-12.22 -3.32,-7.23 -8.32,-10.56 -15.53,-9.45 -5.54,1.67 -11.09,2.79 -17.19,4.45 -4.99,-5.56 -9.43,-12.23 -17.75,-12.79 -13.87,-11.11 -27.73,-2.78 -38.82,4.45 -7.22,4.44 6.1,12.22 7.76,19.45 -5.54,15 -26.62,17.22 -26.62,35.01 0,31.68 -19.41,34.45 -39.37,39.45 0.55,-15.56 -14.43,-8.89 -18.87,-17.23 -6.65,-20.01 16.64,-8.34 17.2,-20.55 2.22,-5.56 7.21,-14.46 1.11,-16.67 -16.08,-6.12 -9.43,-6.12 0,-12.78 6.66,-5 13.87,-18.9 9.43,-28.9 -4.44,-11.11 -18.31,-8.89 -24.97,-3.89 -17.72,13.9 -41.57,18.34 -52.11,42.79 2.78,7.79 -8.87,14.46 -1.67,22.79 17.75,19.45 4.99,26.66 -10.53,32.78 -1.67,0.55 -3.33,1.11 -4.99,1.11 -8.87,-1.11 -17.75,-3.33 -28.85,5.56 7.77,5 18.31,2.22 21.63,11.67 -22.18,16.66 -39.38,5.55 -54.91,-12.79 -13.88,-19.45 -36.06,11.67 -51.03,-12.22 24.41,-3.33 27.17,-51.68 61.56,-32.78 1.11,0.55 3.88,-3.89 6.1,-5.56 17.75,-13.9 0,-22.78 -2.22,-35.01 -4.43,-21.67 -12.2,-18.89 -23.85,-8.88 -20.52,-22.79 -33.83,0 -50.47,10.55 7.21,10 19.97,17.23 15.53,32.78 -1.67,2.79 -2.78,5 -4.44,7.79 -7.21,12.22 -37.71,16.11 -11.09,40 -3.33,3.89 -3.88,13.9 -8.33,16.12 -2.22,0.55 -4.99,0 -8.87,-4.45 -14.97,-14.45 -26.59,-22.78 -31.59,8.89 -0.56,2.78 -9.43,4.44 -14.97,6.11 -11.65,-10 -26.62,-0.55 -42.16,-8.34 12.2,-8.34 24.96,-5.55 32.17,-15.55 -12.21,-1.67 -30.51,-9.45 -34.95,-3.89 -23.85,30.57 -44.37,12.23 -66.01,-1.11 -3.88,-14.45 -12.76,-25.57 -22.18,-36.68 7.21,-2.23 14.42,-4.44 22.18,-6.67 8.87,1.11 18.31,4.44 26.62,-1.11 -0.55,-20.01 -18.86,-5.56 -25.52,-16.67 1.67,-2.23 2.78,-5 4.99,-6.67 5.55,-5 13.32,-9.44 6.66,-19.45 -3.88,-5.56 -7.21,-13.9 -14.97,-11.12 -9.43,3.33 -12.76,14.46 -10.54,22.23 3.33,9.44 1.11,14.45 -4.99,20.01 -3.32,0 -6.65,0 -9.98,0 3.88,-8.89 11.65,-21.11 -1.67,-24.45 -13.87,-3.33 -11.64,14.45 -15.52,23.33 -7.77,4.45 -8.33,11.67 -5.55,19.46 -2.22,10.55 -4.43,20.55 -6.66,30.56 -4.99,3.33 -9.42,8.89 -16.05,6.67 -14.98,-4.44 -12.21,27.78 -29.4,18.9 -8.33,-6.67 -21.63,-0.56 -27.18,-13.9 -2.22,-21.67 -21.63,-17.78 -32.72,-26.67 1.11,-8.34 -2.78,-17.22 4.99,-23.34 1.11,7.79 4.99,17.79 11.09,11.12 8.33,-8.89 17.2,-20.01 17.2,-35.57 0,-13.89 -6.1,-15.55 -16.08,-12.78 -9.99,2.23 -18.87,6.67 -30.51,5 -16.09,-2.23 -25.52,7.78 -9.43,25.01 -5.55,2.22 -10.54,5 -12.2,12.22 -14.43,-11.67 -29.4,0.56 -43.82,-0.55 -14.42,-13.34 -27.17,-10.56 -39.93,5 12.76,13.89 26.06,10.55 39.93,7.78 18.31,0.56 36.06,1.67 54.36,2.23 2.78,1.67 4.99,3.33 7.77,5 2.78,16.67 18.31,20.55 27.18,31.12 1.66,21.67 -16.64,15 -23.3,16.11 -42.16,8.88 -85.97,-10.56 -128.66,8.34 -1.11,0.56 -3.32,-1.67 -4.99,-2.78 4.99,-18.34 12.21,-37.78 -18.3,-31.13 -3.88,0.56 -9.43,-5 -11.1,-11.66l0.56 0.55 0 -0.55c0,0 0,0 -0.56,0 -6.65,-8.89 -14.97,-22.79 -24.96,-8.89 -7.21,9.44 -7.21,25.01 6.1,34.45 5.55,3.89 15.53,5 11.65,16.67 -3.88,2.23 -3.32,7.78 -4.99,9.44 -6.66,6.12 13.87,20.56 -6.1,22.23 -11.65,0.55 -18.31,-2.78 -16.64,-16.67 1.11,-12.23 -6.66,-8.34 -12.2,-10.56 -25.52,-10 -47.71,7.79 -72.12,10 -17.75,1.67 -41.01,-7.78 -55.99,14.46 -11.64,-1.68 -18.86,-7.79 -19.97,-21.12 -0.55,-5.55 -2.22,-10.55 -7.77,-10.55 -5.54,0.55 -7.21,5 -7.21,11.11 -0.56,28.89 -16.64,25.56 -32.72,17.78 -11.1,-5.55 -20.52,-5.55 -31.62,1.11 -10.54,6.67 -21.08,16.12 -34.95,5 -4.43,-3.88 -10.53,1.12 -11.65,8.89 -0.55,6.11 2.23,9.44 7.77,10.56 31.62,5.55 63.79,11.67 95.41,15 7.77,0.55 27.73,-3.33 24.41,-11.67 -7.77,-20.01 5.54,-15.56 12.76,-19.46 1.11,21.67 22.71,31.12 29.37,24.46 16.08,-17.79 24.41,-15 44.37,-6.12 25.52,11.11 56.57,7.79 87.08,10.56 -9.42,16.11 -21.07,33.34 6.1,42.79 12.21,4.44 7.77,14.45 3.33,22.78 -4.99,8.89 -11.1,7.23 -18.86,2.23 -7.22,-4.44 -6.11,-18.34 -17.2,-17.78 -2.78,-3.33 -6.66,-6.67 -8.87,-10.56 -3.88,-6.11 -7.21,-12.78 -14.97,-10 -4.99,1.67 -6.1,7.78 -4.44,12.78 2.78,11.12 9.43,10.56 17.75,7.79 1.12,-0.56 3.33,3.33 5,5 -2.23,20.55 -29.96,11.11 -31.07,32.22 -1.11,24.45 -19.97,14.45 -21.63,8.89 -12.2,-30.57 -29.95,-18.34 -48.26,-11.67 -11.06,3.88 -27.7,-1.12 -23.82,-13.9 3.32,-10.55 5.54,-34.45 27.7,-30.56 6.66,1.11 16.64,-1.12 13.87,-13.34 -2.22,-11.11 -14.42,-14.46 -19.97,-11.11 -24.94,14.45 -52.11,2.78 -77.08,11.11 -9.98,3.33 -27.17,1.67 -25.51,16.11 1.66,16.67 17.19,10 27.73,7.78 7.21,-1.67 13.87,-5.55 21.07,-5.55 9.98,0 23.3,-5.56 28.29,11.11 -29.96,15.55 -61.57,4.44 -92.63,8.34 -22.74,2.78 -41.6,-1.67 -32.17,38.34 -7.21,-16.67 -16.64,-18.9 -25.52,-12.23 -9.42,7.23 2.23,13.9 2.78,21.67 1.11,10 7.77,28.34 2.78,27.78 -22.19,-3.33 -36.61,26.67 -59.33,16.11 -4.43,-2.22 -13.31,1.12 -12.76,-7.22 0.56,-3.89 7.77,-7.79 11.65,-11.67 12.76,-6.67 32.14,-9.44 18.28,-34.45 -4.96,-8.89 -49.89,-20.56 -57.66,-14.46 -5.54,4.45 -4.99,10 -4.43,16.67 1.11,7.78 1.66,16.12 2.78,24.46 -19.42,2.78 -38.83,4.44 -57.69,8.34 -11.65,2.22 -26.62,-12.23 -33.28,3.88 -5.54,13.9 18.86,9.44 18.86,24.45 -5.54,6.12 -13.31,7.23 -18.3,5 -17.75,-8.88 -34.39,-3.88 -52.7,-0.55 -24.38,3.88 -51,12.22 -76.52,-10.56 -8.87,-8.34 -25.51,-23.89 -40.49,-20.55 -27.17,6.11 -59.35,-8.35 -81.53,21.66 -4.99,6.67 -12.21,-1.11 -18.31,-0.55 -25.49,0.55 -49.89,7.22 -66.53,32.22 4.44,8.89 -1.11,26.67 14.97,24.45 23.86,-3.33 47.71,6.67 71.53,-6.11 13.32,-7.23 29.4,-8.34 47.15,-7.23 -9.98,6.67 -23.85,7.79 -21.63,20.01 1.67,12.23 14.43,10 23.85,11.12 30.51,5 61.01,-8.34 91.52,2.22 7.22,2.79 11.65,-5.55 12.76,-13.34 1.67,-17.22 12.21,-17.22 23.85,-18.34 25.5,-2.22 48.79,12.23 74.3,11.12 8.33,-0.56 9.43,6.67 5.55,15.55 -8.33,20.56 -26.62,27.23 -50.47,18.34 4.43,-5.55 11.09,-10 11.09,-18.89 0,-6.12 0,-12.79 -6.66,-15.56 -5.55,-2.23 -13.87,-3.89 -13.87,3.33 -0.56,12.78 -11.09,21.67 -14.95,32.78 -2.77,2.23 -4.99,5 -7.76,7.23 -63.24,5 -126.47,2.78 -189.7,3.33 -11.62,0 -16.61,-7.23 -17.17,-19.46 -0.55,-8.88 -3.88,-16.11 -13.31,-17.22 -7.21,-0.56 -12.76,3.33 -16.64,10 0,0 0,0.56 -0.55,0.56 0,-18.34 -7.77,-20.01 -31.07,-19.46 -9.98,5 -20.52,12.23 -22.74,-8.33 -2.22,-10 29.95,-18.34 1.67,-30.57 -0.56,-8.89 -0.56,-17.23 4.99,-25.01 14.42,-6.67 18.86,-23.89 9.42,-31.68 -18.3,-15 -38.82,-5 -58.24,7.79 20.52,-1.12 26.62,10.55 26.62,30 -2.78,26.67 -22.74,14.46 -34.94,19.46 -13.32,-3.89 -20.52,13.33 -32.72,12.22 -20.52,9.44 -17.75,-7.78 -17.2,-20.01 0.56,-23.33 -6.66,-31.67 -26.04,-18.89 -4.43,-15 -4.43,-37.78 -26.06,-11.12 -7.21,8.89 -19.42,13.9 -25.52,26.12 -5.55,11.11 -16.08,17.78 -26.06,13.34 -27.74,-11.67 -47.15,-5.56 -59.36,26.11 -21.63,10 -49.91,-2.79 -66.01,25.56 3.33,6.12 13.32,1.67 14.98,10.56 -5.55,10.55 -19.95,17.23 -8.87,34.45 11.09,-13.34 26.06,-15 41.6,-15.56 11.65,11.67 23.29,21.12 38.82,8.35 0,-2.23 0.56,-4.45 0.56,-6.12 29.4,-5.55 19.41,15.56 17.19,31.68 0.56,15.56 -7.77,13.34 -18.3,15 -17.75,3.33 -27.73,-19.45 -45.48,-12.78 -29.96,10.55 -61.54,12.22 -92.61,19.45 -61.56,-12.79 -122.58,-29.45 -186.34,-27.23 -9.43,0.56 -19.97,-1.11 -26.62,-8.34 -27.73,-30 -62.68,-33.33 -98.73,-35.56 -8.33,-0.56 -16.09,-1.67 -24.41,-2.23 -4.44,-9.44 2.22,-28.34 -12.76,-25.56 -9.98,1.67 -7.77,12.78 -7.21,23.34 -13.85,-2.23 -27.71,-5.56 -41.02,-10.56 -28.29,-11.11 -58.24,-13.34 -88.2,-14.45 -74.88,-2.79 -149.16,-6.67 -224.04,-6.67 -184.12,0 -367.69,-10.56 -551.83,10 -77.09,8.88 -155.28,8.88 -231.82,20.01 -113.69,17.22 -226.28,40.56 -339.41,61.12 -11.65,2.22 -25.52,6.11 -36.05,2.22 -33.83,-12.78 -66.55,0 -99.27,3.89 -42.16,-8.34 -83.2,15.55 -124.79,6.67 -18.3,-3.89 -35.49,-2.78 -52.13,6.11 -16.08,8.34 -32.16,10.56 -49.35,8.89 -64.34,-5.56 -128.67,3.33 -193.01,7.22 -31.61,1.67 -63.22,-5.55 -94.84,1.67 -47.14,10.56 -93.73,26.12 -143.63,22.79 -27.73,-1.67 -56.57,10 -84.85,16.11 -34.95,-2.23 -67.66,13.34 -100.95,20.55 -15.52,3.33 -32.71,-6.11 -46.03,6.12 -27.72,25.56 -58.23,37.78 -93.73,46.12 -63.77,14.45 -124.78,33.89 -188.01,0 -16.64,-8.89 -33.83,-0.56 -40.48,16.11 -9.43,23.34 -24.96,25.57 -43.27,26.67 -33.27,2.78 -66.54,7.22 -99.27,16.67 -46.03,3.89 -92.62,7.22 -138.65,11.11 -27.73,-5 -53.24,8.89 -79.86,10.56 -5.55,0.55 -9.43,3.88 -7.21,12.78 6.1,20.56 -8.33,28.89 -21.07,36.68 -15.53,1.11 -31.07,2.22 -46.59,2.78 0,2.78 0,5 0,7.78 15.52,1.12 30.5,2.23 46.03,3.33 14.97,11.67 15.53,12.23 10.54,17.23 -13.87,13.34 -24.96,30.01 -46.59,33.34 -14.43,2.22 -32.16,1.11 -43.81,16.11 -19.41,0 -38.26,2.23 -56.01,11.67 -14.97,0.56 -29.4,-2.79 -43.81,-4.45 -51.58,-6.67 -102.6,2.23 -153.07,13.34l-2.78 -0.55 -2.22 1.11c-48.26,-2.78 -96.5,-10.55 -144.75,-16.11 -67.11,-7.78 -134.22,2.22 -200.76,-11.11 -49.36,-9.45 -100.39,-9.45 -150.86,-5.01 -19.41,1.68 -38.26,7.79 -58.23,6.12 -96.5,-10 -193,-25.01 -289.5,-27.23 -116.47,-2.78 -232.38,12.79 -346.06,45.57 -21.08,-7.23 -45.48,-9.44 -62.67,-22.78 -15.53,-12.23 -28.84,-12.79 -43.81,-10.56 -12.76,1.67 -22.74,8.34 -8.87,24.45 6.1,6.67 13.87,17.23 9.42,23.9 -17.19,24.45 1.12,30.01 14.43,38.89 -13.31,11.11 -30.51,4.44 -44.37,12.78 -16.08,-1.11 -22.18,17.23 -12.75,20.56 23.29,8.89 31.61,40.01 57.12,42.23 30.5,-3.33 58.23,8.34 85.96,20.56 7.21,3.33 12.76,6.67 14.97,16.11 11.09,45.57 18.86,51.12 59.34,56.12 32.17,3.89 62.67,-11.11 94.84,-5.55 9.98,7.22 21.63,6.11 32.72,5.55 31.06,-1.67 61.56,3.33 99.83,11.12 -31.06,10.55 -56.57,33.89 -77.65,18.89 -18.3,-13.34 -31.06,-8.34 -47.14,-5.56 -36.05,6.12 -72.1,11.12 -107.59,16.67 -7.21,-12.78 -13.31,-18.89 -24.96,-2.78 -9.98,13.9 -24.4,17.78 -41.04,21.11 -13.87,2.79 -39.37,-10.55 -42.15,22.23 -2.22,-1.67 -3.88,-3.33 -6.1,-5.56 1.67,-9.44 3.88,-18.9 -9.43,-18.9 7.77,-12.78 13.32,-22.78 -9.42,-18.89 -17.19,2.78 -38.26,8.88 -37.71,-28.34 -9.98,17.78 -6.65,36.12 -13.87,50.01 -0.55,1.11 -1.11,2.23 -1.66,3.33 -1.12,1.67 -1.12,3.88 -1.12,5.55 -6.65,23.35 -22.18,26.67 -43.8,18.34 11.64,-2.22 26.06,-1.67 24.4,-20.55 -1.67,-18.34 -16.64,-12.23 -26.06,-16.11 -7.77,-3.33 -14.43,0 -20.51,5.55 -23.3,-5 -46.04,-8.34 -66.55,11.11 -10.54,10 -25.52,-5.55 -36.05,7.23 -23.3,-6.11 -48.26,0.56 -69.88,-10 -1.11,6.67 -2.23,16.11 -3.33,25.01 -4.43,3.33 -4.43,8.34 -3.88,13.34 -4.43,1.67 -8.86,4.44 -13.31,4.44 -11.65,-1.11 -23.29,2.79 -22.74,15 0,8.89 9.98,17.78 22.74,18.34 19.97,0.56 39.93,1.11 59.9,2.79 13.31,1.11 22.18,14.45 22.74,13.33 14.42,-23.33 21.63,1.67 29.39,7.23 11.65,-13.34 0.56,-23.34 1.11,-34.45 9.98,1.67 19.97,7.22 29.4,5 40.48,-8.34 78.75,2.78 117.02,15.55 8.87,7.79 -7.77,24.46 9.43,31.12 14.96,5.56 1.66,-18.33 15.52,-12.78 1.11,16.12 9.98,27.23 24.41,33.34 -3.88,5 -13.87,3.89 -12.21,13.34 1.67,7.23 8.87,5.56 14.43,5 16.08,-1.67 32.71,-3.89 48.81,-5.56 28.28,1.12 57.12,1.67 85.4,3.33 20.52,0.56 41.6,6.12 61.56,-5 3.32,0 6.1,-0.55 9.42,-0.55 14.43,31.12 44.37,40.01 70.99,21.67 3.33,-2.23 8.87,-1.67 13.32,-2.23 8.32,16.11 18.86,6.11 28.28,1.67 6.66,-3.33 14.97,-11.11 20.52,-6.67 21.62,18.34 42.7,1.11 63.78,0.56 9.97,6.11 22.18,7.22 28.84,-1.67 15.52,-19.46 25.51,-14.46 40.48,1.11 11.65,12.22 31.06,16.11 45.48,3.88 13.86,-11.66 -7.77,-16.11 -7.77,-26.11 27.17,-6.11 54.35,-3.88 82.08,-1.67 13.87,1.12 28.28,-1.11 42.15,-2.22 13.31,-2.23 22.74,7.22 32.72,15 30.51,22.22 100.39,16.11 125.89,-10.56 8.32,-8.34 17.75,-11.67 24.4,-2.78 11.1,13.89 24.96,15 38.27,13.89 31.06,-2.78 48.81,20.56 70.99,37.78 -5.55,8.89 -9.98,2.23 -13.87,2.79 -95.4,11.67 -191.34,3.33 -286.72,12.78 -59.9,6.11 -120.9,1.11 -180.8,3.33 -52.69,1.67 -105.93,11.11 -158.62,9.44 -45.48,-1.11 -89.29,5.56 -138.09,14.46 8.87,2.22 13.31,4.44 17.19,4.44 68.21,2.78 136.42,8.34 205.75,3.33 72.1,-5.56 144.19,-2.79 216.85,-1.67 42.15,0.55 84.29,-15 126.45,5 6.1,2.78 19.97,5 31.06,2.78 78.19,-14.45 156.95,-6.11 235.15,-15 35.49,-3.89 70.43,7.23 105.93,7.23 4.98,4.44 13.31,-1.67 16.63,6.67 -1.66,3.88 -3.32,7.23 -4.99,11.11 -0.55,17.78 -16.08,21.67 -23.85,32.78 -33.27,11.12 -67.66,1.12 -101.48,3.89 -14.97,0 -29.4,0 -44.37,0 -14.97,3.33 -24.4,10.56 -18.86,29.45 -30.5,4.44 -53.8,-28.89 -86.51,-23.34 4.43,16.67 18.3,13.9 22.73,23.34 -9.42,4.44 -17.74,7.78 -26.06,11.67 -1.66,-2.23 -3.88,-3.89 -5.54,-6.11 1.66,-9.45 0.55,-19.46 -5.55,-26.11 -7.21,-7.79 -22.18,-10 -19.97,2.78 3.88,21.67 -11.65,19.45 -18.86,27.22 -5.54,3.89 -11.09,8.34 -17.19,12.23 -18.86,-12.78 -39.93,-14.45 -61,-15 -0.56,1.11 -1.11,2.23 -1.11,3.33l-0.56 0c0.56,-1.11 1.11,-2.23 1.67,-2.78 -12.76,-25.57 20.51,-9.45 18.86,-26.67 -18.86,-6.12 -33.83,-4.44 -39.93,21.11 -26.62,-31.68 -27.17,-32.22 -52.13,-7.23 -2.78,2.79 -3.33,2.79 -7.77,2.23 -15.53,-3.89 -32.72,-8.34 -43.81,11.11 -17.19,-1.67 -34.38,-8.33 -51.02,3.33 -7.77,-6.67 -16.08,0.56 -23.85,-0.55 -6.66,-1.12 -16.08,-2.79 -17.19,8.88 -0.56,10.56 7.76,13.34 15.52,13.34 23.85,1.11 48.81,9.45 71.55,-7.23 11.65,14.46 25.51,10.56 39.38,6.12 14.42,7.78 29.39,8.89 44.91,6.67 1.67,0.55 3.33,1.11 4.99,1.11 10.54,12.23 19.97,3.89 28.84,-2.22 6.66,-4.45 12.2,-13.34 21.63,-8.34 2.22,8.88 -6.66,17.22 -1.67,26.11 10.54,-1.12 20.52,-1.67 29.95,-2.79 1.67,0 3.33,0 4.99,1.12 19.97,12.78 29.95,-3.89 41.04,-17.79 5.55,11.67 9.43,27.23 23.3,7.23 3.32,-5 7.21,-7.78 14.42,-3.88 15.53,8.33 31.06,5.55 46.03,-3.34 3.88,-2.78 22.74,1.12 30.51,1.12 4.99,0 27.17,14.45 15.52,-13.9 -2.22,-6.11 6.66,-1.11 9.43,-3.33 14.42,15.56 31.61,21.12 51.02,18.9 17.75,27.78 27.73,28.34 46.03,1.11 4.44,-6.11 8.87,-6.67 14.42,-5.56 18.31,2.79 27.18,15.56 26.07,46.68 9.98,-20 18.85,-23.34 30.5,-21.67 16.08,2.23 14.43,-11.11 12.2,-22.78 23.3,-6.67 47.15,16.67 71.55,-3.33 4.44,-3.33 18.86,-0.55 21.07,-10.55 1.67,-10 -9.98,-12.23 -16.63,-16.67 -3.33,-2.23 -6.66,-3.89 -4.99,-10 29.94,-16.11 58.23,3.33 87.07,5 3.88,8.88 22.18,18.34 -1.11,25.56 -5.55,1.67 -8.33,3.33 -5.55,10 2.22,5 5.55,9.44 9.98,8.89 12.76,-0.56 22.74,-8.89 31.62,-17.23 11.09,-11.11 -3.33,-13.34 -7.77,-19.45 -5.54,-7.78 5.54,-8.34 6.1,-13.9 3.32,-1.67 7.21,-2.78 10.54,-4.44 0,11.67 14.42,17.78 10.53,30.57 -3.32,11.11 -8.87,22.22 3.33,29.45 15.52,8.88 15.52,-13.34 24.96,-17.23 21.07,3.33 41.59,6.12 61.55,14.45 18.31,21.12 21.07,-2.78 28.84,-12.22 3.88,0 7.77,0 11.65,0 4.43,2.22 8.87,3.33 12.2,6.67 21.07,21.67 41.04,20.55 64.33,1.11 6.66,-5.56 19.42,-17.78 32.17,-6.11 2.22,2.22 7.21,1.11 9.42,-3.89 2.78,-6.67 -1.11,-9.44 -5.54,-11.11 -4.99,-1.67 -10.54,-3.33 -15.53,-5 -5.55,-37.23 -5.55,-37.23 27.73,-36.12 1.66,11.67 -4.44,29.45 16.63,25.56 3.33,6.12 47.7,35.01 55.46,35.57 4.43,0.56 9.42,1.67 13.87,2.22 24.96,1.67 54.35,13.34 73.2,6.12 43.81,-16.12 88.19,0.55 130.33,-15 6.1,-27.78 18.3,-33.34 59.34,-27.78 -30.5,-2.79 -30.5,-2.79 -40.48,10.55 38.82,18.34 78.75,32.23 125.89,41.12 -29.95,10 -56.57,10 -77.65,25.57 -17.19,12.78 -36.61,0 -53.8,7.78 -2.78,-13.34 -8.87,-21.67 -22.74,-17.22 -19.97,-7.79 -39.37,-8.89 -57.67,5.55 -32.17,-23.34 -67.66,1.67 -102.05,-8.88 -24.4,-7.23 -51.02,8.34 -77.09,4.44 -17.19,3.89 -34.94,-7.78 -56.01,-1.11 11.65,9.44 21.07,16.67 29.39,23.33 -21.62,8.34 -44.92,6.12 -67.65,4.45 -14.97,-1.11 0.55,-5.56 0,-8.89 3.32,-0.55 9.98,-0.55 8.32,-4.44 -3.32,-8.34 -9.98,-15.56 -18.86,-15 -24.4,0.56 -48.25,2.23 -72.65,-1.67 -4.43,-0.56 -9.98,-2.23 -11.09,5 -0.55,5.56 3.88,8.88 8.33,10.56 1.11,6.66 11.09,1.11 11.64,9.99 -2.78,1.12 -4.99,2.23 -7.77,3.34 -6.1,2.78 -18.3,-1.12 -16.63,10.55 1.66,11.11 12.2,5 18.86,5.56 29.39,0.55 58.79,1.11 88.74,1.67 -6.11,5 -13.32,3.88 -17.2,10.55 -7.76,1.67 -10.53,6.12 -1.66,10 13.31,5.56 27.17,4.45 41.04,3.33 26.06,-3.33 52.69,7.23 78.19,-4.44 20.52,5.56 41.6,8.89 62.11,0 3.88,0 7.77,0.56 11.09,0.56 50.47,0.55 101.49,13.89 150.86,-7.23 -6.66,-15 -19.97,-6.11 -29.95,-10 -10.54,-5 -22.19,4.44 -38.82,-3.89 99.27,-20.55 191.33,-27.78 288.94,-1.67 -69.32,16.12 -135.32,0 -199.65,15.56 25.52,2.78 49.91,15.55 74.32,11.11 26.61,-5 53.79,-4.44 79.86,-3.88 61.55,0.55 122.56,5.55 183.56,5.55 63.78,0 127.56,-10 191.34,3.89 13.31,2.78 24.96,-18.34 41.04,-8.89 8.32,28.34 -18.86,12.79 -24.4,23.9 -17.19,0 -33.83,11.67 -51.58,3.88 -4.99,-2.22 -13.31,-15.55 -16.08,0.56 -1.11,7.78 -2.78,22.78 14.42,21.11 13.32,-1.67 26.06,5.56 38.27,12.23 21.07,11.67 43.26,15.55 66,14.45 1.67,1.67 3.88,2.23 6.1,2.78 15.52,6.67 31.62,11.12 48.81,11.12 8.32,0 22.74,0.55 12.2,-17.78 -11.65,-13.9 -9.98,-22.79 8.32,-20.56 47.15,5 94.85,8.34 141.43,17.78 29.4,6.12 60.46,6.12 89.3,18.9 -77.1,30 -155.29,12.78 -233.49,9.44 4.43,13.34 13.86,15.56 22.73,17.23 35.5,8.34 71,16.11 107.04,22.78 44.92,8.34 91.5,11.67 127.55,48.9 2.78,2.78 11.65,1.67 5.55,9.45 -1.67,2.22 -6.66,1.66 -10.54,2.78 -6.65,-10.56 -12.2,-1.12 -17.74,1.67 -51.58,1.67 -102.05,11.11 -152.52,22.22 -39.93,6.67 -80.97,10.56 -120.35,21.12 -21.62,6.11 -44.92,1.11 -65.44,13.34 -44.92,3.88 -90.4,7.78 -130.33,35 -66.55,-4.44 -126.44,18.34 -180.8,60.02 -49.35,-3.33 -96.5,25.57 -146.42,16.11 -2.22,-0.55 -6.65,2.23 -6.65,3.33 0,28.9 -18.86,15.56 -29.95,15.56 -13.32,0 -26.62,-1.67 -38.82,2.78 -43.81,16.67 -88.74,7.23 -133.1,7.78 -73.76,0.56 -146.42,-15.55 -220.74,-12.78 -20.51,0.56 -40.48,-1.11 -61,-3.89 -31.06,-4.44 -64.33,-9.44 -94.28,-2.78 -23.85,5 -46.59,10.56 -70.99,9.45 -75.43,-3.34 -149.74,-22.23 -225.72,-13.9 -19.97,2.23 -41.6,2.78 -59.9,-10.56 -18.86,-13.89 -39.38,-13.89 -59.35,-8.88 -19.97,4.44 -39.37,5 -58.23,1.67 -75.98,-13.34 -152.52,-20.01 -229.6,-15.56 -23.29,1.11 -47.7,-1.67 -75.43,7.23 9.98,5 15.53,8.88 21.63,10 39.93,8.34 80.41,15.55 119.79,25 30.51,7.23 59.9,21.12 90.39,26.67 75.43,12.78 151.41,22.23 227.39,32.78 6.66,9.45 26.06,7.23 23.85,21.67 -2.78,16.12 -18.86,6.12 -28.28,9.44 -4.99,1.68 -9.98,4.45 -16.08,7.79 8.87,8.34 16.08,16.67 24.4,22.78 5.55,4.45 12.21,6.67 10.54,15.56 -1.67,8.88 -9.43,9.44 -15.53,10 -26.06,1.67 -48.81,15.55 -73.76,23.89 -16.63,-2.22 -33.27,7.23 -50.46,0 -7.77,-19.45 -23.85,-15.55 -36.61,-12.78 -42.71,7.78 -85.96,6.67 -128.11,2.78 -42.16,-3.88 -77.09,11.11 -112.59,30.01 12.76,26.67 33.27,43.89 56.01,43.89 43.81,0.56 87.07,8.89 130.33,10.56 20.51,0.56 42.15,-11.67 61.55,1.11 11.65,7.79 22.19,7.79 34.39,5.56 1.66,-0.56 3.32,0 4.99,1.11 4.99,45.01 21.07,77.8 66,82.24 16.64,6.68 30.5,23.9 50.46,13.9 14.43,0 22.19,3.89 31.62,21.11 18.3,35.01 53.24,48.35 88.74,50.01 42.15,2.23 83.19,13.9 123.68,22.78 46.59,10 93.17,22.78 140.31,25.57 2.78,0 4.99,0.55 7.77,1.11 -30.5,0.56 -61.55,7.23 -92.06,12.23 24.4,5.55 48.25,18.34 72.65,2.22 2.22,5.56 1.67,10.56 1.11,15.56 -37.71,-5 -75.43,-9.44 -112.59,-13.9 -1.67,-2.22 -3.32,-5 -5.55,-7.22 -3.87,-10 -9.42,-13.9 -20.51,-16.11 -17.19,-3.33 -33.27,0.55 -49.35,-1.67 -32.17,-4.45 -64.89,-0.56 -97.06,-5.01 -4.43,-0.55 -8.86,0 -11.64,2.23 -46.59,-10 -93.73,-20.55 -142.53,-22.78 19.41,24.45 41.6,31.68 64.33,35.57 0.56,1.11 1.67,2.22 1.67,3.32 -3.88,10 -17.75,11.67 -17.75,23.9 0,21.12 -13.31,23.34 -26.62,26.67 0.56,-10.57 -9.97,-6.11 -12.75,-11.68 -4.44,-13.89 11.09,-5.54 11.64,-13.89 1.67,-3.88 4.99,-9.44 1.11,-11.11 -11.09,-4.44 -6.65,-3.89 0,-8.89 4.44,-3.33 9.43,-12.78 6.66,-19.45 -3.32,-7.22 -12.76,-6.11 -17.19,-2.78 -11.65,9.44 -28.28,12.78 -35.49,28.89 1.66,5.56 -6.11,10 -1.12,15.56 12.21,13.33 3.33,18.35 -7.21,22.23 -1.11,0.55 -2.22,0.55 -3.32,0.55 -6.1,-0.55 -12.2,-2.22 -19.42,3.32 5.55,3.33 12.2,1.67 14.43,7.8 -14.97,11.12 -26.62,3.88 -37.17,-8.9 -9.42,-12.78 -24.4,7.8 -34.93,-8.32 16.63,-2.25 18.3,-35.02 41.59,-22.24 0.56,0.56 2.78,-2.78 3.88,-3.88 12.2,-9.45 0,-15.56 -1.67,-23.9 -3.32,-15 -8.32,-12.78 -16.08,-6.11 -13.87,-15 -22.73,0 -33.83,7.22 4.99,6.67 13.32,11.68 10.54,22.23 -1.11,1.67 -2.22,3.33 -2.78,5.56 -4.99,8.34 -25.51,11.11 -7.77,27.22 -2.22,2.78 -2.77,9.45 -5.54,10.56 -1.11,0.56 -3.32,0 -6.1,-2.77 -10.54,-10.01 -18.3,-15.56 -21.07,6.1 -0.56,2.22 -6.66,2.78 -9.98,4.43 -7.77,-6.65 -17.75,-0.55 -28.84,-5.54 8.32,-5.55 16.64,-3.88 21.62,-10.57 -8.32,-1.11 -20.51,-6.65 -23.84,-2.77 -16.09,20.54 -29.95,8.35 -44.92,-0.56 -2.78,-10.01 -8.87,-17.23 -14.98,-24.45 4.99,-1.67 9.99,-2.79 14.98,-4.45 6.1,0.56 12.2,2.79 17.74,-1.11 -0.55,-13.34 -12.76,-3.89 -17.19,-11.11 1.11,-1.67 2.22,-3.33 3.33,-4.45 3.87,-3.33 8.86,-6.66 4.43,-13.34 -2.78,-3.32 -4.99,-9.44 -9.98,-7.78 -6.1,2.23 -8.87,10 -7.21,15 2.22,6.67 1.11,10 -3.33,13.34 -2.22,0 -4.43,0 -6.65,0 2.77,-6.11 8.32,-14.45 -1.11,-16.67 -9.43,-2.23 -7.77,10 -10.54,16.11 -5.55,2.79 -5.55,7.79 -3.32,13.34 -1.67,6.67 -2.78,13.89 -4.44,21.12 -3.32,2.23 -6.65,6.11 -11.09,4.44 -10.53,-2.78 -8.32,18.89 -19.97,12.79 -5.55,-4.44 -14.97,0 -18.3,-9.46 -1.67,-15 -14.97,-12.23 -22.18,-18.33 0.55,-5.56 -1.67,-11.67 3.32,-16.11 0.55,5 3.32,12.22 7.77,7.78 5.54,-6.11 11.64,-13.9 11.64,-23.9 0,-9.44 -4.43,-10.55 -11.09,-8.88 -6.65,1.67 -12.76,4.44 -20.51,3.33 -11.09,-1.67 -17.2,5 -6.66,17.22 -3.88,1.67 -7.21,3.33 -8.32,8.34 -9.98,-7.78 -19.97,0 -29.4,0 -9.98,-8.88 -18.3,-7.22 -26.61,3.33 8.32,9.45 17.74,7.23 27.17,5.56 12.2,0.56 24.4,1.11 36.61,1.67 1.66,1.12 3.32,2.23 4.98,3.33 2.23,11.67 12.21,13.9 18.31,21.1 1.11,14.45 -11.09,10.01 -16.08,11.12 -28.84,6.13 -58.24,-7.22 -87.08,5.57 -0.55,0.56 -2.22,-1.11 -3.32,-1.67 3.32,-12.23 8.32,-25.57 -12.2,-21.12 -2.78,0.55 -6.66,-3.33 -7.77,-7.77l0.56 0.55c0,0 0,0 0,-0.55 -4.44,-6.13 -9.98,-15.01 -16.64,-6.13 -4.43,6.13 -4.99,17.22 3.88,23.35 3.88,2.78 10.54,3.32 7.77,11.67 -2.78,1.11 -2.23,5.55 -3.33,6.66 -4.43,4.44 9.43,13.9 -3.88,15 -7.76,0.55 -12.2,-1.67 -11.09,-11.12 0.56,-8.32 -4.43,-5.55 -8.32,-7.21 -17.19,-6.69 -32.16,5.54 -48.81,7.21 -12.2,1.11 -27.73,-5.55 -37.71,10.01 -7.77,-1.11 -12.75,-5.55 -13.31,-14.46 -0.56,-3.87 -1.67,-7.23 -5.55,-7.23 -3.88,0 -4.99,3.35 -4.99,7.23 -0.55,19.45 -11.09,17.23 -22.18,12.24 -7.76,-3.88 -13.87,-3.88 -21.07,0.55 -7.21,4.44 -14.42,11.12 -23.85,3.32 -2.77,-2.22 -7.21,0.56 -7.77,6.11 -0.55,4.46 1.67,6.68 5,7.24 21.62,3.32 43.26,7.76 64.88,10 5.55,0.56 18.86,-2.25 16.64,-7.79 -4.99,-13.34 3.88,-10.56 8.32,-13.34 1.11,14.45 15.53,21.12 19.97,16.11 11.1,-11.65 16.64,-9.98 29.95,-3.88 17.2,7.79 38.27,4.99 58.79,7.24 -6.1,11.09 -14.42,22.21 4.44,28.89 8.32,2.78 5.54,9.98 2.22,15 -3.32,6.1 -7.77,4.99 -12.76,1.67 -4.99,-3.35 -4.43,-12.79 -11.64,-11.68 -2.23,-2.22 -4.44,-4.43 -6.11,-7.24 -2.77,-3.88 -4.99,-8.87 -9.98,-6.65 -3.32,1.11 -3.87,5.54 -3.32,8.89 1.67,7.22 6.66,7.22 11.65,4.99 0.55,0 2.22,2.23 3.32,3.33 -1.67,13.89 -19.97,7.24 -21.07,21.68 -1.11,16.65 -13.31,9.42 -14.97,6.1 -8.32,-20.54 -19.97,-12.23 -32.72,-8.35 -7.77,2.8 -18.86,-1.11 -16.08,-9.43 2.22,-7.24 3.88,-23.34 18.86,-20.57 4.43,1.11 11.09,-0.55 9.42,-8.87 -1.66,-7.24 -9.42,-10 -13.86,-7.79 -16.64,9.45 -34.95,2.22 -52.14,7.79 -6.65,2.23 -18.3,1.11 -17.19,11.12 1.11,11.09 11.65,6.66 18.86,4.99 4.99,-1.11 9.42,-3.88 14.42,-3.88 6.66,0 15.53,-3.9 19.42,7.77 -20.52,10.57 -41.6,3.33 -62.67,5.58 -15.52,1.66 -27.73,-1.14 -21.63,26.09 -3.87,-8.33 -8.32,-9.99 -12.75,-8.87 2.77,-0.56 5.54,0 8.32,-2.23 3.88,-3.35 2.22,-7.79 -1.11,-9.45 -8.32,-4.43 -17.19,-6.13 -25.52,6.1 4.99,3.91 9.43,6.13 13.87,6.69 -4.99,4.43 1.67,9.41 2.22,13.88 0.56,6.66 4.99,19.45 1.67,18.89 -5.55,-0.55 -10.54,1.67 -14.97,4.44 -11.09,-0.56 -22.18,0 -33.27,0.55 1.11,-2.78 4.99,-4.99 7.77,-7.21 8.86,-4.44 21.62,-6.68 12.2,-23.34 -3.33,-6.1 -33.83,-13.9 -38.82,-9.98 -3.88,2.78 -3.33,6.66 -2.78,11.09 1.11,5.56 1.11,11.11 1.67,16.66 -12.76,1.69 -26.06,2.8 -38.82,5.57 -7.77,1.67 -17.75,-8.35 -22.18,2.78 -3.88,9.45 12.75,6.68 12.75,16.66 -3.87,3.88 -8.86,5.02 -12.2,3.33 -12.2,-6.11 -23.29,-2.23 -35.49,-0.56 -6.66,1.11 -13.87,2.25 -20.52,2.81 -4.99,-1.7 -9.98,-3.35 -14.97,-5.58 -2.78,-1.66 -6.66,-1.66 -10.53,-1.11 -1.67,-1.11 -3.88,-1.67 -5.55,-3.32 -6.1,-5.55 -17.19,-16.11 -27.17,-13.9 0,0 0,0 -0.56,0 -68.21,-28.33 -69.32,-28.33 -89.29,-11.12 24.4,7.24 48.81,10.57 76.53,12.23 -14.97,0 -30.5,-1.66 -42.15,13.34 -3.32,4.44 -8.32,-0.55 -12.2,-0.55 -17.19,0.55 -33.83,4.99 -44.92,21.65 2.78,6.13 -0.56,17.81 9.98,16.7 16.08,-2.25 32.16,4.43 48.25,-3.91 8.87,-4.99 19.97,-5.55 32.17,-4.99 -6.66,4.43 -16.09,4.99 -14.98,13.9 1.12,8.32 9.99,6.65 16.09,7.76 20.51,3.35 41.59,-5.54 62.11,1.7 4.99,1.66 7.77,-3.91 8.32,-8.9 1.11,-11.67 8.33,-11.67 16.08,-12.23 7.22,-0.55 13.87,1.11 21.07,2.78 0.56,1.11 1.11,2.78 1.11,4.46 -3.87,-1.11 -8.32,-1.69 -8.32,2.22 -0.55,8.87 -7.21,14.46 -9.98,22.21 -1.67,1.67 -3.32,3.33 -4.99,5.02 -42.71,3.33 -85.4,1.67 -128.11,2.22 -7.77,0 -11.09,-5.01 -11.65,-12.78 -0.55,-6.13 -2.78,-11.12 -8.87,-11.68 -4.99,-0.55 -8.32,2.23 -11.09,6.69l0 0.55c0,-12.23 -4.99,-13.89 -21.07,-13.34 -6.66,3.33 -13.87,8.33 -15.52,-5.57 -1.12,-6.66 20.51,-12.23 1.11,-20.55 -0.56,-6.12 0,-11.67 3.32,-16.66 9.42,-4.46 12.76,-16.11 6.1,-21.68 -12.2,-9.98 -26.06,-3.33 -39.37,5.01 13.86,-1.13 18.3,7.22 18.3,20.55 -1.67,17.78 -15.53,9.45 -23.29,13.34 -8.87,-2.22 -13.87,8.87 -22.19,8.32 -13.86,6.13 -12.2,-5.54 -11.64,-13.87 0.55,-15.58 -4.44,-21.68 -17.75,-12.78 -3.32,-10.01 -2.78,-25.57 -17.75,-7.24 -4.99,6.13 -12.76,9.45 -17.19,17.78 -3.88,7.79 -11.09,11.67 -17.75,8.89 -0.55,0 -1.11,0 -1.11,-0.55 -8.87,-5.55 -18.3,-10.57 -27.73,-11.68 -18.3,-2.22 -20.51,17.78 -25.51,32.22 -11.09,1.11 -22.74,0.56 -30.51,14.45 2.22,3.91 8.87,1.11 9.98,7.24 -3.88,7.22 -13.31,11.68 -6.1,23.33 7.77,-8.87 17.75,-10.54 27.73,-10.54 7.77,7.77 15.52,14.45 26.61,5.55 0,-1.67 0,-2.78 0.56,-4.44 19.97,-3.88 13.31,10.56 11.65,21.66 0.55,10.56 -5.55,8.89 -12.21,10 -12.2,2.23 -18.85,-12.78 -31.06,-8.89 -26.61,9.45 -55.45,8.35 -82.63,19.47 -9.43,3.88 -21.07,-6.13 -31.07,1.66 -7.21,-2.22 -11.09,5.55 -17.19,6.11 -12.75,1.66 -12.75,2.22 -13.31,14.45 15.53,7.24 29.39,-6.66 44.37,-5.55 2.77,1.67 5.54,2.22 8.32,2.22 4.99,-4.99 9.98,-4.99 14.97,0.56 7.76,13.34 12.76,26.12 -6.66,32.22 -0.55,0 -0.55,1.11 -0.55,1.67 -16.08,19.47 -37.71,-3.33 -54.91,9.45 -0.56,0.55 -1.67,-1.67 -3.33,-2.22 -3.88,-1.12 -7.21,1.11 -7.21,4.43 0,19.44 -12.76,15 -21.07,12.79 -10.54,-3.33 -18.86,14.45 -29.4,2.77 -7.76,-21.1 -32.16,-1.11 -41.04,-20.54 -0.55,-1.67 -5.54,1.67 -6.1,5.55 -2.78,17.77 -11.09,9.45 -18.3,4.46 3.88,-8.35 0.55,-9.45 -6.1,-8.35 -16.08,2.22 -17.75,23.35 -31.06,29.45 -7.21,-2.78 -15.53,1.11 -22.19,-4.99 -4.98,-4.46 -7.76,-2.25 -8.32,3.88 -9.42,10.56 -25.51,4.43 -34.38,16.66 -6.66,-0.55 -12.76,-1.11 -18.86,-1.66 2.78,-18.89 17.19,-14.46 26.61,-20 6.11,-3.91 -1.11,-23.35 16.64,-14.46 -7.77,-6.68 -15.52,-7.79 -19.97,-14.45 1.11,-6.13 3.88,-7.79 8.87,-4.46 9.98,2.78 21.07,0 29.39,16.11 1.11,-9.98 0,-16.11 4.44,-20 6.66,-11.12 2.78,-16.67 -8.32,-16.11 -3.33,0 -7.22,4.99 -10.54,2.78 -17.75,-15 -32.72,3.32 -49.36,4.43 -6.65,4.47 -13.31,-0.55 -19.97,-1.11 -8.32,-0.55 -14.96,0.56 -15.52,12.23 -7.21,4.99 5.55,14.46 -2.22,17.78 -9.98,4.46 -11.65,13.9 -15.53,22.79 -7.77,17.22 -32.72,33.33 -42.71,23.91 -8.87,-8.9 -11.64,-2.81 -17.19,1.66 -3.88,3.33 -7.77,8.33 -12.2,9.43 -7.77,2.22 -15.53,2.22 -23.29,3.35 1.11,-7.8 1.11,-16.14 3.32,-23.9 1.11,-3.88 8.32,-5.55 4.99,-11.68 -2.22,-3.88 -6.66,-2.78 -10.54,-2.22 -5.54,1.11 -8.86,3.88 -8.86,11.12 0,8.32 -0.56,17.22 -11.65,9.42 -3.32,-2.22 -4.43,0.56 -3.32,3.91 2.77,9.98 -2.78,9.42 -7.77,7.21 -14.97,-5.54 -29.4,-1.11 -41.04,6.69 -8.33,5.54 -19.97,-8.36 -24.97,6.65 -12.21,4.99 -24.39,9.46 -37.69,8.35 -23.85,4.99 -47.15,11.1 -71,15 -12.2,2.22 -18.31,7.22 -17.75,20.55 -26.61,6.68 -53.8,13.34 -80.42,20 -2.22,0 -6.1,0.55 -7.21,-1.12 -12.2,-12.78 -20.49,-9.98 -29.93,5.02 -4.43,7.21 -12.76,12.79 -22.74,12.23 -5.54,0 -11.65,-1.14 -12.76,7.77 -3.32,1.67 -7.21,3.32 -10.53,4.99 -10.54,-1.67 -18.31,2.81 -23.86,12.23 12.21,-8.32 27.18,1.11 38.83,-8.32 12.2,-1.67 24.96,-2.78 37.17,-4.46 9.95,5.57 15.5,-7.22 23.82,-7.22 0,1.67 0,2.78 0,4.44 2.22,15.55 -11.65,31.67 -28.82,33.33 -23.29,2.8 -23.29,2.8 -37.71,21.12 7.22,-1.66 15.53,-2.22 23.3,-4.99 17.75,-6.68 37.14,-6.68 53.78,-18.35 7.77,-0.56 15.53,-1.12 22.74,-5 17.19,-2.77 34.38,-5.54 51.57,-7.79 14.97,-1.67 18.86,6.13 12.76,21.13 -9.42,2.77 -18.86,6.1 -27.17,10 -11.64,4.99 -25.51,-1.69 -34.38,10.54 -4.99,1.67 -9.43,5.02 -14.43,5.02 -35.5,0 -67.64,18.89 -102.58,24.43 -12.21,2.22 -25.52,6.13 -36.62,14.45 -8.32,1.12 -16.08,2.81 -24.4,3.91 -13.87,1.67 -29.4,0 -40.49,12.76 -3.33,3.35 -9.43,6.68 -6.11,12.79 2.78,5.01 8.33,5.01 13.88,3.35 16.63,-5.58 34.38,-8.9 50.47,-16.14 21.63,-9.43 46.03,-7.21 65.45,-23.32 30.51,1.66 57.1,-20.57 87.61,-18.89 2.78,0 5.55,-2.81 7.77,-4.46 23.85,-11.09 49.91,-12.23 74.32,-20 26.62,-8.35 53.25,-20 82.09,-8.9 6.07,2.23 10.51,-2.78 14.4,-7.21 26.07,-0.56 52.14,0.56 77.1,-10.56 14.97,-2.78 31.62,4.99 45.48,-8.33 12.76,-2.8 24.96,-5.57 37.71,-8.35 27.17,2.22 55.45,-3.88 80.97,14.45 -2.78,2.78 -5.55,5.55 -8.33,8.33 -26.06,3.35 -52.13,6.13 -78.19,13.34 -20.52,5.57 -41.6,13.9 -64.34,10.01 -12.2,-1.67 2.78,14.45 -5.54,18.88 -1.11,0.56 -4.99,3.36 1.11,3.91 11.09,1.11 21.07,6.1 32.72,2.78 13.87,-4.44 28.84,-3.88 42.71,-7.24 27.72,-7.77 56.56,8.35 83.75,-7.77 3.32,-1.67 9.42,-1.67 13.86,4.44 -18.3,8.35 -34.94,17.22 -53.24,17.77 -14.42,0.56 -27.73,3.35 -38.26,15 -9.43,-2.22 -18.86,-2.78 -29.4,-1.67 -23.85,1.67 -47.14,3.91 -69.88,10.57 -31.61,9.45 -64.34,9.45 -95.93,17.77 -17.19,4.46 -17.75,6.13 -24.96,21.13 22.74,-13.34 45.45,-10.01 67.65,-13.9 46.59,-7.79 92.06,-24.46 139.76,-23.9 4.99,0 11.65,-1.67 16.64,-1.11 1.11,0.55 2.22,1.11 3.88,1.11 3.87,1.66 6.65,6.1 6.65,15 -24.4,3.88 -47.7,-6.11 -73.76,7.79 -14.42,7.77 -37.16,4.99 -56.56,7.21 -46.6,6.13 -92.61,16.67 -139.2,23.35 -18.87,9.43 -41.05,3.33 -59.9,15 2.78,5.55 16.63,3.33 6.09,13.9 -5.54,4.43 -12.19,3.88 -18.85,3.88 -17.75,-16.11 -21.07,-15.56 -35.5,6.1 -1.11,2.25 -2.22,2.81 -4.44,2.25 -8.32,-3.91 -17.75,1.11 -24.93,-5.57 -23.85,-8.87 -29.96,11.12 -38.27,28.34 -12.2,0 -24.96,0 -35.5,8.89 -4.44,3.33 -9.98,3.33 -12.2,-3.32 -4.44,-15.03 -3.88,-15.58 -16.64,-6.68 -17.75,-6.66 -32.73,6.1 -49.36,9.45 -4.99,1.11 -8.33,8.32 -3.88,15.55 1.11,4.99 6.1,5.55 8.32,8.87l-0.55 0.56c-13.32,8.89 -27.74,10 -42.72,11.67 -12.76,0 -24.93,1.67 -34.92,12.23 -18.86,-17.77 -18.3,-17.77 -33.27,4.99 -2.23,3.35 -7.77,8.9 -10.54,2.81 -8.87,-21.13 -14.97,-2.25 -27.18,0.55 11.65,2.78 18.31,4.99 16.64,15.56 -4.99,2.77 -9.42,6.1 -14.42,8.87 -11.1,0 -21.63,1.66 -31.62,16.11 13.31,-4.44 24.96,2.25 34.38,-8.33 2.78,0 5,-0.55 7.77,-0.55 0,7.76 -0.55,14.99 -3.88,21.65 -16.63,2.22 -26.06,21.68 -42.15,25.02 -10.54,3.88 -22.19,6.1 -27.18,20 -7.77,3.35 -12.2,-13.34 -17.19,-6.1 -11.65,15.55 -31.07,14.45 -43.82,26.11 -9.95,-8.35 -18.83,-6.68 -27.7,3.33 -11.09,12.78 -27.18,10 -40.49,10.56 -8.87,0.56 -15.53,-2.78 -19.42,8.87 -2.78,7.79 -7.77,11.12 -8.87,-1.67 -0.56,-4.43 -3.32,-3.88 -4.99,-1.66 -12.76,13.34 -28.84,14.99 -44.37,19.44 -8.32,2.25 -21.07,4.46 -26.62,16.69 -6.1,1.67 -9.98,11.65 -16.64,8.33 -31.04,-16.67 -49.33,18.88 -75.96,24.46 -9.98,2.22 -22.19,12.78 -34.95,15.55 -6.66,1.67 -13.31,1.67 -17.19,10.01 -15.53,11.65 -35.5,11.09 -49.92,24.43 -7.21,2.22 -17.19,1.67 -17.19,12.79 0,12.78 10.53,4.99 16.08,7.24 16.08,6.65 28.29,-6.13 42.16,-8.9 42.71,-8.35 81.53,-29.45 122.55,-42.24 22.75,-7.21 45.49,-17.22 69.34,-17.22 11.09,0 17.75,0 22.74,-11.12 10.54,-6.1 21.07,-11.12 32.72,-14.99 26.06,-8.87 54.92,-8.87 79.29,-25.02 22.18,4.46 39.93,-12.2 59.91,-16.67 10.53,0 21.07,0.56 31.62,0.56 6.1,0 16.08,-8.87 17.75,1.11 2.22,10.56 -10.54,10.56 -17.2,14.45 -3.88,2.25 -8.87,0.56 -12.76,2.25 -7.77,3.33 -17.75,3.33 -19.97,15.56 -14.97,6.65 -31.07,9.98 -46.59,14.99 -15.53,5 -37.14,8.33 -43.79,24.99 -12.2,32.25 -42.71,44.45 -57.13,72.79 -8.32,17.25 -28.29,20.57 -37.71,36.69 -34.39,33.89 -66.56,70.58 -97.04,108.35 -7.77,2.25 -11.65,11.67 -12.76,17.24 -6.1,35.56 -33.28,61.12 -37.17,97.78 -0.55,7.8 -2.77,15.56 -9.42,20.03 -3.88,0.55 -4.99,3.32 -6.66,6.1 -14.97,28.34 -0.56,53.91 8.87,77.79 7.21,18.91 16.08,40.01 34.39,51.69 18.3,25.01 41.57,42.24 69.31,52.24 16.08,6.1 32.16,13.32 45.48,24.44 29.95,24.46 64.34,36.69 98.17,51.13 32.14,13.9 65.43,27.23 94.83,55.01 -41.05,6.1 -77.08,24.99 -117.01,20 2.22,-4.99 14.42,-1.11 10.53,-10.56 -2.22,-5.55 -10.53,-1.67 -15.52,-1.11 -8.87,0 -8.87,5.54 -6.1,12.23 -24.41,-1.67 -48.82,-4.44 -73.22,2.22 -9.98,2.78 -18.86,-1.67 -27.73,-3.88 -7.21,-2.22 -13.31,-5.02 -11.09,-17.22 0.55,-3.35 3.32,-12.79 -5.55,-20.03 -17.75,-14.99 -37.14,-9.42 -55.43,-13.34 -62.12,-13.89 -120.36,4.46 -177.49,30.01 -8.33,3.91 -15.5,1.69 -23.27,1.69 -16.64,-0.58 -33.28,-17.24 -53.81,-0.58 18.31,4.46 33.28,8.35 48.82,10.56 6.65,1.12 12.76,2.78 17.75,7.8 -7.77,6.66 2.75,16.11 -1.67,21.1 -4.99,5.57 -13.87,3.88 -19.97,0 -9.43,-5.55 -16.64,-2.22 -26.07,5.57 17.2,4.44 31.62,10.54 46.04,11.65 18.28,1.67 16.06,16.11 15.5,28.34 -9.98,21.13 -20.49,15.55 -28.26,15.55zm250.1 321.73c0,0 0,-0.55 -0.55,-0.55l0.55 0c0,0.58 0,0.55 0,0.55zm1196.82 1059.68c0.56,0 1.11,-0.55 1.67,-0.55 0,0 0,0 0.55,0 -1.11,0 -1.66,0 -2.22,0.55zm12220.52 297.86c-1.11,0 -2.22,0 -3.88,-0.55 1.67,-0.56 2.78,-0.56 4.44,-1.11 0,0.55 -0.56,1.11 -0.56,1.66zm1879.53 -589.58c-10.54,10.01 -25.52,6.13 -31.62,19.47 -9.98,-11.12 -26.62,-3.35 -37.17,-12.79 21.63,-1.66 43.81,-7.24 68.78,-6.68zm-119.23 23.35c-0.55,0 -1.11,0.55 -1.66,0.55 -6.1,-10 -19.97,-13.34 -19.42,-28.89 8.33,7.77 13.87,18.89 21.07,28.34zm-273.98 84.46l0.56 0.56c-0.56,0 -0.56,0 -1.11,0 0,0 0,0 0.55,-0.56zm-131.42 172.24c-1.12,-1.67 -1.67,-3.88 -1.67,-6.11 0,-0.55 0.55,-0.55 0.55,-1.11 1.12,1.11 1.67,2.78 2.78,4.44 1.11,0 1.64,0 2.75,0 -2.22,0.55 -3.29,1.11 -4.4,2.78zm19.39 -8.33c0,0.56 0.55,1.11 0.55,2.22 -3.32,2.23 -8.32,2.23 -12.73,2.78 7.74,-2.78 8.3,-11.09 6.63,-20 -1.11,-6.1 -4.96,-11.67 -11.62,-8.89 -1.67,0.55 -3.33,-4.99 0,-2.22 14.4,2.22 16.61,13.34 17.17,26.11zm1595.58 -2605c0,0.55 0.56,0.55 0.56,1.11l-0.56 0c0,-0.56 0,-0.56 0,-1.11zm-835.78 -1305.83c-0.55,0 -1.11,0 -1.66,0 0,-0.56 0,-0.56 -0.56,-1.11 1.11,0.55 1.67,0.55 2.22,1.11zm-22.74 -1022.99c0,0 0.56,0 0,0l0 0zm-7746.59 -445.1c1.11,0 2.22,0 3.88,0.56 -1.67,0.55 -2.78,0.55 -4.43,1.11 0,-0.56 0.55,-1.11 0.55,-1.67zm-5738.97 937.42c0,-0.55 0,-0.55 0,0 1.11,-0.55 2.22,0 3.32,0 -1.66,-0.55 -2.22,-0.55 -3.32,0zm102.04 -1.11c-2.22,-0.56 -3.87,-1.11 -6.1,-1.11 -0.55,-0.56 -1.11,-0.56 -1.66,-1.12 2.77,0.56 5.54,1.12 7.76,2.23zm352.73 281.73c0.55,0.55 1.11,1.66 2.22,2.78 -1.11,-1.12 -1.67,-1.67 -2.22,-2.78zm1592.8 -510.12l0.56 -0.55c0.55,0.55 1.66,0.55 2.22,1.11 -1.11,-0.56 -2.22,-0.56 -2.78,-0.56zm90.4 -338.95c0,0.55 0.55,1.11 0.55,1.67 -0.55,0 -0.55,-0.56 -1.11,-0.56 0.56,-0.56 0.56,-1.11 0.56,-1.11zm-17.19 1005.76l0.55 0 0 0.56c0,-0.55 0,-0.56 -0.55,-0.56zm102.59 -802.94c-0.55,-1.12 -0.55,-1.67 -1.11,-2.23 1.11,-0.55 2.78,-0.55 3.88,-1.11 -1.11,1.11 -2.22,2.22 -2.78,3.33zm119.24 -215.05c-0.56,-0.56 -1.11,-1.11 -1.67,-1.67l0.56 0.56c0.55,0.55 1.11,0.55 1.11,1.11zm113.13 246.16c0.56,-0.56 0.56,-0.56 1.11,-0.56 0,0.56 0,0.56 0,1.12 0,0 -0.55,-0.56 -1.11,-0.56zm-1699.84 1204.15c0,-0.56 0,-0.56 0,0 0,-0.56 0,-0.56 0,-0.56 0.56,0 0,0 0,0.56zm-789.74 555.12c0.56,0 1.67,0 2.23,0 -1.12,0 -1.67,0.55 -2.78,0.55 0,0 0,0 0.55,-0.55zm1057.62 -134.49c3.88,1.67 7.21,3.35 11.09,3.91 2.78,0.55 0,5.54 -0.56,8.87 -8.87,-0.56 -18.3,-3.33 -30.5,1.11 3.32,2.8 6.1,3.35 9.42,4.46 -2.78,0 -4.99,0 -7.77,0.56l0 -0.56c-2.22,-1.67 -3.88,-2.25 -6.1,-3.91 0,-4.99 -0.55,-10.53 -1.11,-15.55 1.67,-1.11 3.32,-1.11 4.44,-1.67 6.65,1.11 13.86,2.23 21.07,2.78zm-163.06 19.47c0.56,0 0.56,0 1.11,0 0.56,0.56 0.56,1.11 1.11,1.67 -1.11,-0.56 -1.66,-1.11 -2.22,-1.67zm-1368.18 227.25c7.21,8.9 19.41,7.79 26.61,13.34 -4.43,-1.67 -9.98,-6.1 -16.08,-1.11 0,-0.56 0,-0.56 0,-1.11 -3.32,-4.44 -8.87,-5.55 -13.31,-8.9 1.11,-0.55 2.22,-1.11 2.78,-2.22zm-195.77 1942.65c-0.56,-1.11 -0.56,-2.22 -0.56,-3.32 0.56,0 1.67,0.55 2.22,0.55 -0.55,0.56 -1.11,1.67 -1.66,2.78zm58.23 76.68c-0.56,0 -0.56,-0.56 -1.11,-0.56 0.55,0 0.55,0 1.11,-0.55 0,0.55 0,0.55 0,1.11zm36.61 70.02c0,-0.56 0,-0.56 0,0 0,-0.56 0.55,-0.56 0.55,-0.56 0,0 -0.55,0 -0.55,0.56zm11.64 -21.13c0,-0.55 0.56,-1.11 0.56,-1.66 0.55,0.55 0.55,1.11 1.11,1.66 -0.56,0 -1.11,0 -1.67,0zm78.2 557.92c0,0 0,-0.55 -0.56,-0.55 0.56,0 0.56,0 0.56,0.55zm24.96 -335.07c0,-0.55 0,-1.11 0,-1.67 0.55,0.56 1.11,0.56 1.66,1.12 -0.55,0 -1.11,0.55 -1.66,0.55zm6488.76 763.49c0.55,0.55 1.11,1.11 1.66,1.66 -7.21,-0.55 -13.87,-0.55 -21.07,-1.11 5.55,-4.43 11.65,-6.66 19.42,-0.55zm-1455.81 -96.67c-1.11,3.32 -3.33,3.88 -4.99,2.78 1.66,-0.56 3.32,-1.67 4.99,-2.78zm9041.04 -3209.58l-0.58 -0.55 0.58 0 0 0.55zm-7466.53 3246.24c-2.22,1.67 -3.32,3.33 -4.99,5.58 0,-1.14 0,-1.7 0,-3.36 1.67,-1.11 2.22,-2.77 2.78,-4.43 1.11,1.11 1.67,1.67 2.22,2.22zm111.47 3.88c-0.56,-1.67 -2.78,-2.22 -4.44,-3.32 -6.66,-4.99 -16.64,-4.99 -24.96,-7.22 8.32,-2.8 16.64,-5.57 25.52,-6.68 1.11,0 2.22,0 3.32,0 11.65,7.8 17.75,16.11 19.42,27.79 -7.22,0.55 -13.87,1.11 -21.08,1.66 2.23,-2.78 3.33,-6.66 2.23,-12.23zm-3723.55 329.53c-4.43,3.32 -9.42,2.77 -13.87,-0.56 6.1,-0.56 12.21,-1.11 18.31,-2.22 -1.67,1.11 -2.78,2.22 -4.44,2.78zm183.01 -257.84l0 -0.56 0.56 0c0,0 0,0.56 -0.56,0.56zm78.2 167.27c-0.56,-0.56 -0.56,-1.11 -1.11,-1.11 0.55,0.55 1.11,0.55 1.11,1.11zm78.19 -144.48c0.56,-1.11 1.11,-1.66 1.67,-2.22 0,0.56 0.56,1.11 1.11,1.67 -1.11,0 -1.67,0.55 -2.78,0.55zm59.35 135.03c0,-0.56 -0.56,-0.56 -0.56,-1.11 0,0 0.56,0 0.56,0.55 0.55,0 0,0.56 0,0.56zm61 -228.94c-0.56,0 -1.11,-0.56 -1.67,-1.11 1.11,0.55 1.67,0.55 1.67,1.11zm1988.76 33.35c-19.41,14.46 -36.61,-3.9 -54.33,-7.24 -3.88,-0.55 0,-8.32 1.11,-13.34 13.29,1.11 27.15,4.46 45.45,-2.22 -17.19,-12.79 -31.62,-13.9 -46.56,-10.56l0 -0.56c-3.33,-2.78 -7.22,-3.32 -11.1,-2.22 -1.11,1.11 -1.66,1.67 -2.77,2.78 -4.99,-7.22 -6.66,-13.9 -2.23,-20 1.67,0.55 3.33,1.67 4.99,2.22 19.98,9.45 42.14,10.56 62.65,18.92 0.56,0 1.67,0.55 2.23,0.55 -2.78,10.54 -0.56,21.1 0.55,31.67zm201.32 -30.56c-0.56,-0.55 -1.11,-1.66 -1.11,-2.22 1.11,0.56 2.22,1.67 3.32,2.22 -1.11,0 -1.67,0 -2.22,0zm773.68 0.56c4.43,1.66 8.32,3.32 13.31,3.32 -4.99,4.44 -9.43,8.87 -14.43,13.34 -1.11,1.11 -1.66,2.23 -2.77,3.88 -1.67,-1.66 -3.88,-3.32 -5.55,-4.99 -0.56,-11.12 3.88,-14.45 9.43,-15.55zm668.28 18.89c6.63,-2.78 13.85,-5.55 20.5,-7.24 9.42,-2.23 13.87,5.57 17.19,12.78 0,0.56 0,1.11 0.56,1.67 -2.23,0 -5,0.58 -7.22,0.58 -6.1,1.11 -14.97,6.1 -18.3,2.78 -4.44,-3.35 -8.87,-7.8 -12.74,-10.56zm2196.74 329.52c-1.66,-1.69 -3.32,-3.35 -4.43,-6.13 1.67,0 3.32,0.56 4.99,0.56 0,2.22 0,3.88 -0.56,5.57zm153.07 70.55c-0.56,-0.56 -0.56,-1.11 -1.11,-1.67l0.55 -0.55c0.56,0 0.56,0 1.12,0 0,1.11 0,1.66 -0.56,2.22zm27.73 -81.67c0.56,-0.56 0.56,-0.56 0.56,-0.56 0,0.56 0,0.56 -0.56,0.56zm461.98 11.68c1.67,-1.12 3.33,-1.67 4.99,-2.81 -1.66,3.35 -3.32,3.35 -4.99,2.81zm415.38 71.68c-19.41,14.46 -36.6,-4.46 -54.35,-7.24 -3.88,-0.55 0,-8.32 1.11,-13.34 13.32,1.11 27.17,4.44 45.47,-2.22 -17.19,-12.79 -31.61,-13.9 -46.58,-10.56l0 -0.56c-3.32,-2.78 -7.21,-3.32 -11.09,-2.22 -1.11,1.11 -1.67,1.66 -2.78,2.78 -4.99,-7.22 -6.66,-13.9 -2.22,-20 1.67,0.55 3.32,1.66 4.99,2.22 19.97,9.45 42.15,10.56 62.67,18.89 0.55,0 1.66,0.55 2.22,0.55 -2.78,10.57 0,21.13 0.55,31.7zm201.87 -30.59c-0.55,-0.55 -1.11,-1.66 -1.11,-2.22 1.11,0.56 2.23,1.67 3.33,2.22 -1.11,0 -1.67,0 -2.23,0zm1798.02 -337.29c3.32,0 6.66,1.67 9.42,2.78 -4.43,7.24 -7.21,2.25 -9.42,-2.78zm163.05 15c0.55,1.11 0.55,1.67 1.11,2.25l-0.56 0.55c-0.55,-5.57 -7.77,-6.12 -9.42,-11.11 5.54,-1.12 6.65,4.43 8.87,8.32zm-3.88 60.01c-2.23,-0.55 -3.88,-0.55 -5.55,0.56 6.66,-13.32 7.77,-33.89 29.95,-28.87 -9.42,8.32 -29.95,6.1 -24.4,28.31zm66.55 -73.34c-10.53,-13.32 -28.28,-11.65 -39.38,-20 6.66,2.22 14.43,8.9 23.3,1.67 0,0.55 0,1.11 0,1.66 4.99,6.69 13.31,8.9 19.42,13.34 -1.12,0 -2.78,1.12 -3.33,3.33zm570.12 -280.61l-0.56 -0.55 0.56 0c0,0.55 0,0.55 0,0.55zm755.9 -3778.57c-1.11,0.55 -2.78,0.55 -3.88,1.67 -12.21,-1.67 -19.98,10 -31.04,11.67 -5.55,-1.67 -9.43,1.67 -13.87,4.44 -5.55,3.33 -11.09,5 -16.64,7.23 -6.1,0 -11.65,-0.01 -17.75,-0.56 -28.29,-3.89 -56.57,-5.56 -85.42,-7.78 0,-4.45 4.44,-6.67 7.22,-8.89 8.87,-6.11 19.97,-9.44 25.51,-20.55 5.55,0 11.1,0 16.64,2.78 12.21,6.11 58.24,-6.67 61.57,-19.45 1.66,-6.68 4.43,-11.67 7.21,-15.56 22.72,7.22 44.9,15 68.75,15 10.54,6.11 21.63,11.11 33.28,15 -18.31,1.67 -34.94,8.34 -51.58,15zm-715.41 -1068.56l0.55 0.55c-0.55,0 -0.55,0.56 -1.11,0.56 0.56,0 0.56,-0.56 0.56,-1.11zm-1634.42 -342.86c1.12,1.12 2.23,2.23 3.33,3.89 -1.11,0 -2.22,-0.56 -3.33,-0.56 0,-1.11 0,-2.22 0,-3.33zm-103.14 -47.79c0,0.56 0.56,0.56 0.56,1.12 0,0 0,0 -0.56,0.55l-0.55 0c0,-1.11 0,-1.11 0.55,-1.67zm-18.86 55.01c-0.55,0 -0.55,0.56 0,0 -0.55,0 -0.55,0.56 0,0zm-593.96 -56.12c13.31,-10 24.96,2.78 37.17,5 2.77,0.56 0,5.56 -0.56,8.88 -8.87,-0.55 -18.31,-3.32 -30.51,1.12 11.65,8.88 21.63,9.44 31.62,7.22 0,0 0,0 0,0.56 2.22,2.23 4.99,2.23 7.77,1.67 0.56,-0.56 1.11,-1.11 1.67,-1.67 3.32,5 4.43,9.44 1.66,13.9 -1.11,-0.56 -2.22,-1.12 -3.32,-1.67 -13.32,-6.11 -28.29,-7.23 -42.16,-12.79 -0.55,0 -1.11,-0.55 -1.66,-0.55 1.11,-7.23 -0.56,-14.45 -1.67,-21.67zm-135.9 20.56c0.56,0.55 0.56,1.11 1.11,1.66 -0.55,-0.55 -1.67,-1.11 -2.22,-1.66 0,0 0.55,0 1.11,0zm-142.52 -21.67c-3.88,1.67 -8.32,2.78 -12.76,3.88 0,-2.78 -0.55,-4.44 -1.67,-5.55 5,1.11 9.99,2.78 14.43,1.67zm-151.95 -16.12c-3.88,2.79 -7.77,5.56 -8.33,9.45 -6.1,-1.12 -9.98,-3.89 -13.87,-13.34 7.77,1.11 14.97,2.78 22.19,3.88zm-1581.17 -122.8c1.67,1.67 3.33,3.33 4.44,6.11 -1.67,0 -3.32,-0.56 -4.99,-0.56 0,-2.22 0,-3.88 0.55,-5.55zm-153.06 -71.13c0.55,0.55 0.55,1.11 1.11,1.67l-0.56 0.55c-0.55,0 -0.55,0 -1.11,0 0,-1.11 0.56,-1.67 0.56,-2.22zm-27.73 81.68c-0.56,0.56 -0.56,0.56 -0.56,0.56 0,0 0,-0.56 0.56,-0.56zm-461.43 -11.11c-1.67,1.11 -3.32,1.67 -4.99,2.78 1.11,-3.33 2.78,-3.88 4.99,-2.78zm-415.95 -71.69c19.42,-14.45 36.62,3.89 54.37,7.23 3.87,0.56 0,8.34 -1.12,13.34 -13.31,-1.11 -27.17,-4.44 -45.48,2.23 17.2,12.78 31.62,13.89 46.6,10.55l0 0.56c3.32,2.78 7.21,3.33 11.09,2.23 1.11,-1.12 1.66,-1.68 2.78,-2.79 4.99,7.23 6.65,13.9 2.22,20.01 -1.67,-0.56 -3.33,-1.67 -4.99,-2.23 -19.97,-9.44 -42.16,-10.55 -62.68,-18.89 -0.55,0 -1.66,-0.56 -2.22,-0.56 2.78,-10.55 0.56,-21.11 -0.56,-31.68zm-201.31 30.57c0.55,0.56 1.11,1.67 1.11,2.22 -1.11,-0.55 -2.22,-1.66 -3.32,-2.22 0.55,0 1.11,0 2.22,0zm-1798.54 337.3c-3.33,0 -6.66,-1.67 -9.43,-2.79 4.99,-7.78 7.21,-2.78 9.43,2.79zm-163.05 -15c-0.56,-1.12 -0.56,-1.67 -1.11,-2.23l0.55 -0.55c0.56,5.55 7.77,6.11 9.43,11.11 -5.55,1.11 -6.1,-5 -8.87,-8.34zm3.88 -60.02c2.22,0.56 3.88,0.56 5.54,-0.55 -6.65,13.33 -7.77,33.89 -29.95,28.89 9.43,-8.89 29.95,-6.11 24.41,-28.34zm-66.56 73.35c10.54,13.34 28.29,11.67 39.38,20.01 -6.66,-2.23 -14.42,-8.89 -23.29,-1.67 0,-0.56 0,-1.12 0,-1.67 -5,-6.67 -13.32,-8.89 -19.42,-13.34 1.67,-0.56 2.78,-1.67 3.32,-3.33zm-2311.55 55.56c6.66,-5 14.43,-3.89 21.07,1.12 -8.86,0.55 -17.74,1.66 -26.61,2.78 1.66,-1.12 3.32,-2.79 5.54,-3.89zm-745.37 1394.19c-0.56,0.56 -1.11,1.67 -1.67,2.23 0.56,-0.56 1.11,-1.12 1.67,-2.23zm-620.6 599.58c3.88,6.66 4.43,12.76 2.78,17.78 -44.92,-1.67 -89.3,-7.8 -133.66,-14.45 -2.22,-2.78 -4.44,-6.69 -7.21,-8.9 -8.87,-8.34 -8.87,-13.34 4.43,-12.78 4.44,0 10.54,0 11.09,-5.56 40.49,9.45 80.97,18.89 122.57,23.91zm-210.19 -12.79c9.97,-11.12 12.75,1.11 17.74,7.77 -7.77,-1.11 -15.52,-2.22 -23.29,-2.77 2.22,-1.67 3.88,-3.33 5.55,-5zm-1309.97 260.03c0,0.58 0,0.58 0,0.58l-0.55 0 0.55 -0.58zm-196.32 13.34c-2.23,0 -4.44,-1.11 -6.66,-2.22 3.32,-4.99 4.99,-1.67 6.66,2.22zm-110.37 -10.54c-0.56,-0.55 -0.56,-1.11 -0.56,-1.66 0,0 0,0 0.56,-0.56 0.55,3.88 4.99,4.44 6.66,7.77 -4.44,1.11 -4.99,-2.78 -6.66,-5.55zm2.78 -40.57c1.11,0.56 2.78,0 3.88,-0.55 -4.44,8.87 -4.99,23.32 -20.52,19.44 6.66,-5.55 20.52,-3.88 16.64,-18.89zm-341.64 2308.84l0.56 0.56c0,0 -0.56,0 -0.56,-0.56 0,0.56 0,0 0,0zm-9.42 304.51c-0.55,0 -0.55,0 0,0 -0.55,0 -0.55,0 0,0zm-79.86 -2373.87c0.56,0 0.56,0 0,0 0,0.56 0.56,0.56 0,0zm-412.06 97.25c7.21,-6.66 17.19,-3.88 21.07,-13.34 6.66,7.24 18.31,2.22 25.52,8.35 -14.97,1.67 -29.4,5.55 -46.59,4.99zm80.98 -16.11c0.55,0 0.55,0 1.11,-0.55 3.85,6.65 13.29,8.87 13.29,19.44 -6.11,-4.99 -9.98,-12.23 -14.4,-18.89zm185.22 -57.23c-0.56,0 -0.56,0 0,0 0,-0.56 0,-0.56 0,0zm88.74 -116.14c0.55,1.11 1.11,2.78 1.11,3.88l-0.56 0.55c-0.55,-0.55 -1.11,-1.66 -1.66,-2.77 -0.56,0 -1.11,0 -1.67,0 1.11,-0.56 2.22,-1.12 2.78,-1.67zm-13.31 5.54c0,-0.55 0,-1.11 -0.56,-1.11 2.22,-1.66 5.55,-1.66 8.32,-1.66 -4.99,1.66 -5.54,7.24 -4.43,13.34 0.56,4.43 3.32,7.79 7.77,6.13 1.11,-0.59 2.22,3.32 0,1.66 -8.87,-2.25 -10.54,-10 -11.09,-18.36zm-34.39 2033.78c-0.56,0 -0.56,0 0,0 -0.56,0 -0.56,0 0,0 -0.56,0 -0.56,0 0,0zm-12.2 6.68c0,0.56 -0.56,1.67 -0.56,2.22 -0.55,0 -0.55,0 -1.11,0 0.56,-1.11 1.11,-1.66 1.67,-2.22zm-104.27 276.72c-0.55,0 0,0 0,0 -0.55,0 -0.55,0 0,0 -0.55,0 -0.55,0 0,0zm-68.77 13.35c0,0.55 0.56,1.11 0.56,1.66 -0.56,0 -0.56,0 -0.56,0 -0.55,-0.55 -0.55,-1.11 0,-1.66zm-57.66 -233.39c0,0.56 0.55,0.56 0.55,1.11 -0.55,0 -0.55,0 -1.11,0.56 0,-1.11 0,-1.11 0.56,-1.67zm-75.44 332.28c0.56,0.55 0.56,0.55 1.11,1.11 -0.55,0 -1.11,0 -1.66,0 0.55,-0.56 0.55,-0.56 0.55,-1.11zm-143.62 -78.9c0,0.56 0,1.12 -0.55,1.12 0,-0.56 -0.56,-0.56 -0.56,-1.12 0.56,0 0.56,0 1.11,0zm-66.55 -215.05c0.55,0 0.55,0 0,0 0,0 0.55,0 0,0zm-24.97 96.14c0,0 0,0.55 0,0 0,0.55 0,0.55 0,0z"/>
   </g>
  </g>
  <polygon class="fil2" points="8240.74,0 -0,0 -0,5676.95 8240.74,5676.95 "/>
 </g>
</svg>
